<?xml version="1.0" standalone="no"?>
<!DOCTYPE svg PUBLIC "-//W3C//DTD SVG 20010904//EN"
 "http://www.w3.org/TR/2001/REC-SVG-20010904/DTD/svg10.dtd">
<svg version="1.0" xmlns="http://www.w3.org/2000/svg"
 width="300.000000pt" height="153.000000pt" viewBox="0 0 300.000000 153.000000"
 preserveAspectRatio="xMidYMid meet">
<metadata>
Created by potrace 1.10, written by Peter Selinger 2001-2011
</metadata>
<g transform="translate(0.000000,153.000000) scale(0.100000,-0.100000)"
fill="#ffffff" stroke="none">
<path d="M2583 1145 c-19 -21 -16 -52 8 -76 17 -17 23 -37 26 -93 2 -39 8 -83
14 -97 7 -17 7 -34 -1 -53 -5 -15 -10 -58 -10 -96 0 -62 -2 -69 -26 -84 -32
-22 -30 -65 5 -82 20 -11 29 -9 60 10 49 31 61 59 61 144 0 64 3 76 25 100 27
29 26 52 -5 87 -14 15 -19 41 -22 103 -3 82 -4 84 -40 118 -40 36 -75 43 -95
19z m90 -46 c13 -16 17 -40 17 -101 0 -83 11 -118 35 -118 23 0 18 -26 -10
-54 -23 -23 -25 -33 -25 -108 -1 -49 -6 -89 -13 -99 -15 -19 -50 -39 -71 -39
-21 0 -16 39 7 46 26 8 37 45 36 127 -1 62 2 73 21 89 18 15 19 19 7 24 -23 8
-30 31 -36 124 -5 76 -8 86 -28 95 -13 5 -23 18 -23 29 0 16 5 18 33 12 17 -3
40 -16 50 -27z"/>
<path d="M328 1121 c-32 -28 -33 -32 -36 -119 -4 -80 -7 -93 -28 -113 -30 -28
-31 -53 -1 -74 19 -13 22 -25 24 -90 3 -92 21 -138 63 -160 69 -36 118 19 66
74 -23 24 -26 35 -26 95 0 38 -6 79 -14 94 -12 24 -12 30 0 47 9 12 14 45 14
92 0 66 3 75 25 95 14 12 25 31 25 43 0 52 -62 61 -112 16z m82 -16 c0 -15 -6
-25 -15 -25 -24 0 -35 -35 -35 -114 0 -62 -4 -80 -19 -95 -19 -19 -19 -20 0
-37 16 -14 19 -31 19 -96 0 -83 11 -118 35 -118 8 0 15 -9 15 -20 0 -26 -30
-26 -64 1 -24 19 -26 26 -26 105 0 77 -2 87 -25 110 -31 31 -31 37 0 68 23 23
25 33 25 109 0 74 3 86 23 104 20 19 41 30 60 32 4 1 7 -10 7 -24z"/>
<path d="M528 1092 c-42 -4 -68 -26 -50 -44 7 -7 12 -33 12 -58 0 -39 -3 -46
-21 -47 -23 -2 -48 -29 -49 -54 0 -8 9 -25 20 -37 27 -29 101 -31 129 -3 19
19 20 19 36 1 13 -15 31 -19 79 -18 33 0 66 5 73 10 7 6 19 5 32 -1 29 -16 82
-13 103 6 17 15 19 15 38 -2 11 -10 31 -19 46 -21 30 -3 74 14 74 29 0 6 9 2
20 -8 24 -22 91 -26 129 -7 76 36 68 169 -11 187 -19 4 -28 13 -28 26 0 28
-50 51 -80 36 -19 -10 -24 -20 -23 -49 0 -36 0 -37 -24 -21 -27 18 -91 12
-104 -9 -6 -10 -15 -9 -39 6 -31 18 -100 16 -100 -3 0 -18 -35 -22 -46 -6 -18
25 -79 31 -110 10 -32 -21 -41 -13 -27 25 16 42 -9 58 -79 52z m60 -33 c-15
-8 -18 -24 -18 -91 0 -62 -4 -86 -17 -100 -31 -35 -109 -14 -101 28 5 29 33
24 33 -6 0 -15 6 -25 15 -25 12 0 16 18 18 90 2 76 0 92 -14 102 -15 11 -9 13
42 13 45 -1 55 -3 42 -11z m542 -29 c0 -38 2 -40 20 -30 14 8 26 8 40 0 66
-36 39 -150 -37 -150 -12 0 -25 5 -28 10 -5 8 -11 7 -21 -1 -12 -10 -14 3 -14
88 0 64 -4 103 -12 111 -9 9 -5 12 20 12 31 0 32 -2 32 -40z m-412 -36 c18
-12 22 -25 22 -70 0 -41 3 -53 13 -48 6 4 4 -2 -6 -12 -15 -16 -20 -17 -37 -6
-15 9 -26 10 -41 1 -58 -30 -65 33 -8 69 27 17 35 29 32 43 -8 29 -33 23 -33
-7 0 -19 -4 -25 -17 -22 -27 5 -22 41 7 55 32 16 41 16 68 -3z m146 6 c16 -6
26 -17 26 -30 0 -26 -30 -26 -37 0 -3 12 -11 19 -17 17 -16 -5 -19 -62 -6 -88
10 -17 18 -20 43 -15 l32 6 -24 -20 c-48 -41 -105 -11 -105 57 0 26 7 42 28
59 31 28 27 27 60 14z m160 -11 c52 -41 25 -139 -39 -139 -64 0 -91 98 -39
139 15 12 32 21 39 21 7 0 24 -9 39 -21z m-144 -75 c0 -2 -7 -4 -15 -4 -8 0
-15 4 -15 10 0 5 7 7 15 4 8 -4 15 -8 15 -10z"/>
<path d="M1143 983 c-20 -8 -17 -112 3 -120 24 -9 35 16 32 71 -3 49 -11 59
-35 49z"/>
<path d="M672 918 c-17 -17 -15 -40 5 -36 9 2 18 13 19 26 4 24 -6 28 -24 10z"/>
<path d="M966 974 c-9 -24 -7 -87 4 -104 9 -13 12 -12 25 4 25 33 18 116 -10
116 -7 0 -16 -7 -19 -16z"/>
<path d="M1333 1088 c-23 -11 -30 -32 -15 -42 13 -8 13 -137 0 -169 -9 -23 -8
-31 3 -38 20 -12 73 -11 86 2 8 8 17 8 30 0 14 -7 23 -7 30 0 8 8 17 8 30 1
11 -6 69 -11 129 -10 95 0 112 3 131 20 l22 20 27 -21 c34 -27 141 -30 184 -4
26 15 29 15 44 0 14 -14 41 -16 169 -16 84 0 160 2 169 5 14 4 16 13 11 50 -7
51 11 62 21 13 8 -43 41 -69 86 -69 52 0 74 27 77 97 2 46 -2 58 -22 79 -25
25 -73 32 -92 13 -8 -8 -17 -8 -30 0 -11 5 -48 9 -82 7 -46 -2 -61 1 -57 10 6
16 -31 64 -48 64 -21 0 -46 -35 -46 -63 0 -24 -3 -26 -23 -18 -13 5 -53 8 -90
7 -63 -2 -67 -1 -67 20 0 31 -17 41 -80 49 -68 8 -119 -11 -150 -56 -16 -22
-26 -27 -33 -20 -18 18 -72 12 -101 -10 l-26 -20 0 23 c0 13 4 30 10 38 13 20
-5 38 -45 46 -43 8 -73 -9 -91 -52 -8 -19 -16 -34 -19 -34 -2 0 -12 15 -21 33
-29 55 -69 70 -121 45z m101 -70 c12 -29 26 -62 30 -73 6 -16 13 -6 38 53 l30
72 46 0 c37 -1 43 -3 30 -11 -15 -8 -18 -25 -18 -99 0 -74 3 -91 18 -99 13 -8
1 -10 -48 -10 -49 0 -59 3 -42 9 21 9 22 15 21 97 0 61 -3 82 -9 68 -5 -11
-25 -55 -43 -98 l-34 -78 -41 98 -41 98 -1 -87 c0 -73 3 -89 18 -97 13 -8 8
-10 -28 -11 -43 0 -44 0 -22 16 20 14 22 24 22 100 0 78 -2 85 -22 94 -19 7
-14 9 25 9 l48 1 23 -52z m516 42 c9 -6 17 -5 22 3 12 19 20 1 16 -39 l-3 -39
-14 27 c-18 35 -64 55 -96 40 -31 -14 -50 -80 -38 -131 9 -39 48 -69 76 -58
22 8 24 67 2 67 -8 0 -15 4 -15 8 0 4 25 8 55 8 55 -1 69 -8 39 -20 -12 -4
-14 -13 -10 -31 5 -21 2 -27 -19 -35 -15 -6 -47 -10 -72 -10 -38 0 -50 5 -79
34 -28 28 -34 42 -34 76 0 34 6 48 34 76 28 28 41 34 78 34 23 0 50 -4 58 -10z
m308 -13 c4 -20 -25 -34 -40 -19 -15 15 -1 44 19 40 10 -2 19 -11 21 -21z
m-321 -39 c30 -28 29 -38 -6 -38 -31 0 -59 -24 -41 -35 13 -8 13 -45 1 -45
-25 0 -37 77 -18 117 13 29 34 29 64 1z m-213 -8 c16 -6 26 -17 26 -30 0 -26
-30 -26 -37 0 -3 12 -11 19 -17 17 -16 -5 -19 -62 -6 -88 10 -17 18 -20 43
-15 l32 6 -24 -20 c-48 -41 -105 -11 -105 57 0 26 7 42 28 59 31 28 27 27 60
14z m690 -30 c-11 -11 -54 -2 -54 11 0 4 8 12 18 18 21 12 52 -13 36 -29z
m111 15 c38 -37 33 -55 -15 -55 -45 0 -52 -16 -20 -45 19 -17 21 -17 40 0 24
22 27 9 3 -17 -9 -10 -27 -18 -41 -18 -40 0 -62 27 -62 76 0 34 5 47 26 63 34
27 40 26 69 -4z m-443 -47 c2 -48 7 -63 18 -63 20 0 27 104 8 116 -8 6 0 9 22
9 l35 0 -3 -60 c-3 -38 1 -66 8 -75 11 -13 7 -15 -19 -15 -17 0 -31 5 -31 10
0 6 -8 5 -20 -2 -35 -22 -55 0 -58 68 -2 32 -9 62 -15 66 -7 4 2 8 20 8 l32 0
3 -62z m178 -7 c0 -46 4 -71 13 -74 6 -3 -10 -5 -38 -5 -27 0 -44 2 -37 5 8 3
12 27 12 68 0 41 -4 65 -12 68 -7 3 4 6 25 6 l37 1 0 -69z m91 52 c0 -10 0
-37 -1 -61 -1 -24 4 -50 10 -58 11 -12 6 -14 -31 -14 -33 0 -40 3 -31 12 16
16 16 125 0 131 -7 3 2 6 20 6 24 1 32 -3 33 -16z m-608 -70 c-7 -2 -19 -2
-25 0 -7 3 -2 5 12 5 14 0 19 -2 13 -5z"/>
<path d="M2477 984 c-16 -16 -7 -44 14 -44 15 0 20 5 17 22 -3 22 -19 33 -31
22z"/>
<path d="M711 782 c-44 -7 -81 -78 -51 -97 6 -4 2 -13 -10 -23 -44 -35 17 -81
75 -58 23 10 37 9 65 0 24 -8 39 -9 47 -2 7 6 21 8 32 5 10 -2 26 0 35 5 13 7
23 5 36 -7 11 -10 20 -12 24 -6 4 5 37 10 74 10 73 0 80 0 162 -3 62 -2 90 7
90 31 0 12 7 9 28 -13 38 -42 77 -34 107 21 23 41 23 57 -3 88 -17 19 -57 23
-67 7 -5 -8 -11 -8 -20 0 -14 12 -52 10 -73 -4 -7 -4 -19 -3 -26 3 -13 11 -95
9 -115 -3 -6 -4 -19 -2 -30 3 -14 8 -22 7 -32 -5 -11 -14 -13 -14 -21 0 -5 9
-15 16 -22 16 -8 0 -19 7 -26 15 -7 8 -16 13 -20 10 -5 -3 -11 -1 -14 4 -8 13
-48 1 -66 -19 -17 -19 -85 -16 -110 5 -21 17 -41 22 -69 17z m55 -33 c5 -8 -1
-10 -18 -6 -28 7 -65 -14 -54 -31 4 -7 15 -12 25 -12 10 0 24 -6 30 -14 28
-33 -29 -77 -78 -61 -35 11 -24 22 21 21 32 -1 43 3 46 16 2 11 -6 18 -28 23
-39 9 -48 30 -25 55 20 22 70 27 81 9z m168 -4 c-16 -13 -17 -16 -4 -25 13 -8
13 -10 -1 -10 -11 0 -20 -15 -28 -45 -6 -25 -16 -45 -21 -45 -6 0 -6 9 -1 23
5 13 12 38 14 56 6 38 23 61 45 61 13 0 12 -3 -4 -15z m60 -27 c7 -5 5 -8 -6
-8 -21 0 -36 -59 -18 -70 9 -5 9 -9 1 -14 -19 -12 -32 5 -26 32 3 15 7 37 10
50 6 34 18 49 23 32 3 -8 10 -18 16 -22z m-134 -30 c0 -53 -50 -89 -78 -55
-12 14 -6 53 11 75 5 6 22 12 38 12 26 0 29 -3 29 -32z m170 -5 l0 -38 22 38
c12 20 26 37 30 37 4 0 8 -17 8 -37 l1 -38 20 38 c11 20 24 37 29 37 11 0 -41
-100 -52 -100 -4 0 -8 17 -10 38 l-3 37 -24 -40 c-24 -40 -24 -40 -32 -15 -11
37 -10 80 1 80 6 0 10 -17 10 -37z m204 29 c3 -5 0 -27 -6 -50 -9 -36 -14 -42
-37 -42 -36 0 -53 18 -40 42 6 11 21 18 40 18 20 0 29 4 26 13 -2 6 -14 11
-26 10 -11 -2 -21 2 -21 7 0 12 57 14 64 2z m103 1 c-5 -4 -18 -8 -30 -8 -15
0 -24 -9 -31 -30 -18 -59 -18 -60 -23 -48 -2 6 1 29 6 50 10 36 14 39 48 41
20 2 34 -1 30 -5z m78 -23 c0 -22 -4 -25 -32 -25 -21 0 -33 -5 -33 -14 0 -9 8
-12 25 -8 16 3 24 0 22 -7 -5 -16 -36 -19 -53 -5 -10 8 -13 21 -9 38 10 38 25
52 54 49 20 -2 26 -9 26 -28z"/>
<path d="M800 691 c-16 -31 -12 -51 10 -51 21 0 45 43 34 61 -9 15 -33 10 -44
-10z"/>
<path d="M1167 663 c-14 -13 -6 -23 18 -23 16 0 25 6 25 15 0 15 -31 21 -43 8z"/>
<path d="M1360 695 c-11 -13 -8 -15 20 -15 21 0 30 4 28 13 -7 18 -33 20 -48
2z"/>
<path d="M1501 763 c-10 -11 -23 -47 -30 -78 -17 -74 -6 -89 58 -81 64 8 72 8
104 0 17 -4 38 -1 52 6 20 11 27 11 40 0 12 -10 19 -10 37 2 21 13 25 13 41
-3 14 -13 25 -15 48 -9 16 5 61 7 100 4 58 -3 74 -8 89 -27 l18 -22 24 21 c33
29 72 43 89 34 8 -5 39 -8 69 -6 52 2 56 4 73 39 9 20 23 37 31 37 7 0 19 7
26 15 10 13 10 19 -5 35 -18 20 -69 27 -79 11 -4 -5 -18 -5 -35 2 -23 8 -34 7
-53 -5 -21 -14 -27 -14 -43 -2 -22 16 -72 19 -77 4 -2 -7 -15 -6 -36 2 -25 10
-37 10 -51 1 -16 -10 -20 -9 -25 13 -8 31 -31 31 -52 -1 -11 -17 -20 -22 -28
-16 -15 12 -86 7 -114 -8 -15 -8 -23 -8 -27 0 -4 6 -14 8 -22 5 -9 -4 -22 -1
-29 5 -8 6 -24 9 -36 6 -15 -4 -30 1 -45 15 -31 29 -90 30 -112 1z m95 -18
c10 -25 -6 -85 -27 -106 -22 -22 -94 -28 -86 -6 2 6 10 38 17 70 l13 57 39 0
c25 0 41 -5 44 -15z m354 8 c0 -5 -7 -30 -15 -58 -10 -32 -12 -51 -5 -53 16
-6 12 -22 -5 -22 -8 0 -15 9 -15 19 0 33 23 121 32 121 4 0 8 -3 8 -7z m-255
-63 c0 -22 -4 -25 -32 -25 -21 0 -33 -5 -33 -14 0 -9 8 -12 25 -9 14 3 25 2
25 -3 0 -14 -21 -21 -47 -14 -22 5 -25 10 -19 37 9 43 25 60 55 56 20 -2 26
-9 26 -28z m47 -7 l3 -38 22 38 c12 20 27 37 33 37 8 0 -29 -65 -57 -99 -6 -9
-11 5 -18 52 -5 31 -4 47 3 47 6 0 12 -17 14 -37z m143 7 c0 -22 -4 -25 -32
-25 -21 0 -33 -5 -33 -14 0 -9 8 -12 25 -9 34 7 43 -10 10 -18 -18 -4 -32 -2
-42 8 -13 13 -13 19 1 52 13 32 20 37 43 34 22 -2 28 -8 28 -28z m163 2 c4
-30 -23 -72 -47 -72 -40 0 -50 49 -18 88 17 21 61 11 65 -16z m107 18 c4 -6 1
-26 -5 -45 -11 -33 -33 -49 -61 -43 -8 2 -15 -7 -17 -19 -2 -13 -8 -23 -14
-23 -5 0 -8 6 -5 13 2 6 10 38 17 70 13 55 14 57 46 57 18 0 36 -5 39 -10z
m100 -20 c0 -22 -4 -25 -32 -25 -21 0 -33 -5 -33 -14 0 -9 8 -12 25 -9 14 3
25 2 25 -3 0 -14 -21 -21 -47 -14 -22 5 -25 10 -19 37 9 43 25 60 55 56 20 -2
26 -9 26 -28z m100 20 c-4 -6 -10 -8 -15 -5 -18 11 -40 -9 -46 -41 -3 -19 -10
-37 -15 -40 -12 -7 -11 11 3 57 10 35 14 39 45 39 21 0 32 -4 28 -10z"/>
<path d="M1520 708 c-6 -24 -13 -49 -15 -56 -4 -10 4 -12 28 -10 27 3 34 9 45
42 14 43 4 66 -29 66 -13 0 -21 -12 -29 -42z"/>
<path d="M1640 695 c-11 -13 -8 -15 14 -15 16 0 26 5 26 15 0 8 -6 15 -14 15
-7 0 -19 -7 -26 -15z"/>
<path d="M1837 704 c-14 -14 -6 -24 19 -24 16 0 24 5 22 13 -5 14 -31 21 -41
11z"/>
<path d="M1990 691 c-16 -31 -12 -51 10 -51 21 0 45 43 34 61 -9 15 -33 10
-44 -10z"/>
<path d="M2102 698 c-20 -25 -18 -53 4 -56 15 -2 23 4 28 20 9 36 7 48 -8 48
-7 0 -18 -6 -24 -12z"/>
<path d="M2200 695 c-11 -13 -8 -15 14 -15 16 0 26 5 26 15 0 8 -6 15 -14 15
-7 0 -19 -7 -26 -15z"/>
</g>
</svg>
