<?xml version="1.0" standalone="no"?>
<!DOCTYPE svg PUBLIC "-//W3C//DTD SVG 20010904//EN" "http://www.w3.org/TR/2001/REC-SVG-20010904/DTD/svg10.dtd">
<svg xmlns="http://www.w3.org/2000/svg" version="1.0" width="200.000000pt" height="150.000000pt" viewBox="0 0 200.000000 150.000000" preserveAspectRatio="xMidYMid meet">
<metadata>
Created by potrace 1.16, written by Peter Selinger 2001-2019
<meta name="Producer" content="Online-Convert"/></metadata>
<g transform="translate(0.000000,150.000000) scale(0.100000,-0.100000)" fill="#000000" stroke="none">
<path d="M0 750 l0 -750 1000 0 1000 0 0 750 0 750 -1000 0 -1000 0 0 -750z m1766 346 c16 -12 20 -31 25 -117 5 -78 10 -105 23 -114 9 -7 16 -18 16 -25 0 -7 -7 -18 -16 -25 -13 -9 -18 -36 -23 -114 -5 -86 -9 -105 -25 -117 -11 -8 -23 -14 -28 -14 -14 0 -9 37 7 50 11 9 15 33 15 89 0 46 6 87 14 104 13 23 13 31 0 55 -8 16 -14 57 -14 104 0 55 -4 81 -15 92 -16 16 -20 46 -7 46 5 0 17 -6 28 -14z m-1486 -7 c0 -6 -9 -22 -20 -36 -16 -21 -20 -41 -20 -106 0 -58 -4 -85 -15 -97 -14 -15 -14 -18 0 -30 11 -9 15 -34 15 -101 0 -77 3 -92 20 -106 27 -23 26 -45 -2 -41 -34 5 -48 44 -48 133 0 59 -5 87 -17 104 -14 21 -14 27 -2 45 8 12 16 61 19 117 3 59 11 103 19 113 15 18 51 22 51 5z"/>
</g>
</svg>
