<?xml version="1.0" standalone="no"?>
<!DOCTYPE svg PUBLIC "-//W3C//DTD SVG 20010904//EN" "http://www.w3.org/TR/2001/REC-SVG-20010904/DTD/svg10.dtd">
<svg xmlns="http://www.w3.org/2000/svg" version="1.0" width="826.000000pt" height="826.000000pt" viewBox="0 0 826.000000 826.000000" preserveAspectRatio="xMidYMid meet">
<metadata>
Created by potrace 1.16, written by Peter Selinger 2001-2019
<meta name="Producer" content="Online-Convert"/></metadata>
<g transform="translate(0.000000,826.000000) scale(0.100000,-0.100000)" fill="#000000" stroke="none">
<path d="M0 7990 c0 -243 2 -269 16 -263 14 5 15 -1 10 -48 -19 -180 -25 -431 -25 -1148 l-1 -804 22 -19 c12 -10 31 -21 42 -24 12 -3 39 -33 61 -67 36 -56 45 -63 89 -74 27 -7 73 -14 102 -17 61 -5 74 -11 74 -33 0 -10 6 -14 20 -10 11 3 20 1 20 -4 0 -5 11 -7 25 -3 14 3 25 2 26 -2 0 -5 2 -20 4 -34 6 -45 6 -84 -1 -137 -5 -38 -10 -50 -20 -46 -8 3 -14 -1 -14 -8 -1 -8 -10 3 -21 24 -23 44 -36 46 -85 12 -43 -29 -65 -31 -99 -9 l-25 16 0 -48 c-1 -27 -7 -75 -15 -108 -9 -39 -11 -66 -4 -83 11 -29 12 -43 1 -43 -7 0 -14 16 -42 87 -6 17 -25 43 -41 57 -16 14 -29 36 -29 49 -1 33 -24 115 -37 128 -6 6 -20 8 -32 4 -20 -6 -21 -12 -21 -210 l0 -204 29 5 c23 5 32 2 40 -14 6 -11 20 -24 31 -27 11 -3 20 -13 20 -21 0 -8 3 -14 8 -15 84 -6 81 -7 101 26 10 18 36 45 57 61 22 16 42 34 46 40 4 6 19 19 33 28 20 13 30 15 40 6 16 -13 35 -5 35 14 0 17 58 71 67 62 4 -4 2 -15 -4 -26 -13 -19 -8 -67 8 -86 6 -7 5 -40 -3 -90 -8 -47 -14 -68 -16 -51 -2 15 -8 27 -14 27 -5 0 -19 11 -30 25 -15 20 -25 23 -51 18 -65 -12 -157 -102 -157 -154 0 -36 -10 -42 -29 -18 l-16 20 -24 -20 c-13 -12 -33 -21 -45 -22 -19 0 -19 -1 -3 -8 16 -6 10 -12 -32 -41 -28 -19 -51 -42 -52 -50 0 -10 -3 -8 -9 5 -7 19 -9 18 -19 -8 -7 -18 -11 -112 -11 -253 l0 -224 30 -6 c25 -5 28 -9 20 -25 -15 -27 -13 -30 18 -27 25 3 27 0 30 -36 3 -36 5 -38 30 -33 24 5 30 0 53 -43 25 -47 25 -49 6 -54 -13 -3 -18 -10 -14 -21 6 -14 -21 -59 -82 -135 -19 -23 -20 -24 -21 -5 0 11 12 38 26 58 26 40 26 60 -1 37 -8 -7 -21 -10 -28 -7 -10 4 -13 -1 -10 -16 3 -12 -2 -35 -11 -51 l-15 -29 -5 34 c-11 68 -13 125 -5 147 6 16 5 22 -6 22 -23 0 -22 -595 0 -621 14 -15 14 -18 0 -32 -13 -14 -15 -133 -15 -1081 l0 -1066 21 3 c25 2 33 -11 19 -33 -8 -12 -11 -13 -19 -1 -6 9 -11 10 -15 2 -11 -17 4 -51 22 -51 13 0 12 -3 -6 -16 -22 -15 -22 -16 -22 -315 l0 -299 37 -52 c21 -29 43 -57 50 -61 7 -4 13 -15 13 -23 0 -25 28 -27 62 -3 81 55 178 177 178 222 0 8 9 26 20 39 10 14 17 28 14 31 -3 3 4 28 16 55 12 28 19 56 14 63 -4 8 -3 10 4 5 9 -5 12 17 12 83 0 54 4 91 10 91 11 0 12 -16 11 -124 -1 -61 1 -67 16 -55 14 12 15 10 8 -21 -4 -19 -13 -46 -21 -60 -7 -14 -20 -49 -29 -78 -9 -29 -25 -57 -36 -62 -19 -11 -49 -59 -49 -81 0 -7 8 -6 25 5 31 21 34 20 28 -4 -8 -29 -94 -105 -102 -91 -5 8 -20 2 -47 -18 -58 -41 -238 -101 -220 -73 2 4 1 14 -5 22 -6 10 -9 -10 -9 -58 0 -42 4 -71 9 -68 5 4 12 -8 16 -26 3 -18 11 -45 17 -60 l10 -28 450 0 c357 0 448 3 442 12 -4 7 -22 31 -40 53 -36 46 -74 117 -74 140 0 9 -5 26 -12 38 -13 24 -14 28 -24 98 -4 30 -13 50 -26 58 -20 12 -20 11 -14 -24 5 -25 4 -35 -3 -30 -6 3 -11 -1 -11 -9 0 -19 -39 -86 -51 -86 -5 0 -6 20 -3 44 6 42 5 44 -14 39 -11 -2 -29 -15 -40 -26 -28 -33 -78 -118 -87 -152 -7 -25 -9 -27 -13 -10 -2 11 -9 23 -15 27 -8 5 -6 13 6 25 22 25 107 205 107 228 0 10 11 28 25 41 26 24 33 44 15 44 -20 0 -9 30 24 66 l33 36 5 -27 c3 -15 0 -50 -8 -78 -7 -28 -12 -52 -11 -53 1 -1 11 -4 23 -8 20 -6 20 -3 16 49 -4 46 -2 55 12 55 9 0 18 12 22 28 29 124 59 202 84 217 14 9 13 -3 -11 -69 -11 -32 -19 -68 -17 -79 2 -16 12 -6 41 43 37 63 95 136 102 128 5 -4 -51 -118 -65 -132 -18 -18 -11 -45 15 -52 39 -10 43 -23 32 -92 -10 -59 -27 -85 -27 -42 0 11 -4 20 -9 20 -12 0 -23 -29 -15 -42 11 -17 -16 -67 -34 -61 -16 7 -16 7 4 -57 4 -12 2 -20 -5 -20 -6 0 -11 5 -11 10 0 10 -49 34 -56 27 -6 -6 72 -147 81 -147 4 0 -15 81 -22 94 -3 6 3 2 14 -9 11 -11 40 -56 63 -100 23 -44 47 -84 52 -90 11 -12 -1 72 -14 98 -5 10 -7 21 -4 24 3 3 9 -3 12 -13 4 -10 18 -45 31 -78 13 -32 27 -80 30 -107 l6 -49 145 0 c140 0 144 1 138 20 -16 52 -14 61 4 23 22 -46 54 -60 46 -20 -23 108 -26 131 -16 141 15 15 20 3 31 -70 5 -38 11 -75 14 -82 3 -9 245 -12 1160 -12 l1155 0 -20 32 c-28 45 -25 59 17 111 32 39 42 45 63 40 14 -3 38 -19 54 -34 15 -16 32 -26 37 -23 5 3 47 -24 93 -60 l84 -66 325 0 325 0 135 45 c134 45 136 45 176 29 26 -10 45 -26 53 -45 l13 -29 94 0 94 0 -24 26 c-13 14 -57 51 -98 82 -41 31 -136 106 -210 167 -75 61 -179 140 -231 177 -132 91 -158 122 -84 99 90 -29 103 -22 54 27 -16 17 -30 34 -30 39 0 4 -13 15 -29 25 -21 11 -28 22 -25 35 3 11 -5 28 -20 42 -14 14 -26 33 -26 44 0 10 -10 27 -22 36 -27 23 -16 41 25 41 38 1 77 30 77 58 0 11 3 22 8 24 4 2 14 18 23 37 14 32 16 33 32 16 21 -20 45 -21 106 -6 24 7 52 9 62 6 13 -4 19 -1 19 9 0 9 5 16 11 16 6 0 9 -6 6 -13 -4 -10 7 -14 44 -13 27 1 49 5 49 10 0 4 8 6 19 3 10 -2 25 0 34 4 9 5 41 11 73 14 31 3 73 9 93 14 20 5 68 9 106 10 55 1 75 -3 93 -18 12 -11 22 -24 22 -29 0 -13 36 -22 91 -22 38 0 47 3 45 18 -1 13 8 18 36 20 32 3 40 -1 50 -22 6 -14 15 -26 21 -26 12 0 46 -42 47 -57 0 -7 10 -17 21 -24 18 -9 19 -13 8 -20 -12 -8 -11 -11 2 -22 9 -6 16 -15 17 -20 2 -24 10 -32 22 -21 9 9 9 16 -1 31 -16 26 -5 53 20 53 14 0 19 -5 15 -15 -4 -8 -1 -15 5 -15 6 0 11 12 11 26 0 22 2 24 15 14 19 -16 37 -3 30 21 -8 23 10 26 19 3 3 -9 6 -30 6 -48 0 -41 6 -47 37 -35 20 7 28 6 39 -8 12 -16 13 -15 13 12 0 17 -6 48 -13 70 -12 39 -12 39 -24 17 -7 -12 -17 -22 -23 -22 -5 0 1 19 15 43 15 27 26 66 31 109 3 37 11 70 16 73 5 4 10 0 10 -7 5 -54 11 -77 34 -125 32 -63 28 -97 -4 -36 -25 49 -36 56 -27 15 3 -15 9 -52 12 -82 7 -77 24 -128 35 -108 6 10 3 29 -5 50 -16 37 -13 46 23 66 20 12 25 12 32 1 4 -8 4 -18 -1 -23 -6 -6 -10 -13 -10 -17 0 -15 61 -51 76 -45 12 4 10 10 -8 31 -12 14 -28 23 -36 20 -10 -4 -12 0 -8 11 3 8 6 19 6 24 0 5 7 15 15 23 10 11 12 23 6 43 -16 58 2 54 30 -6 16 -33 34 -58 39 -55 6 3 10 0 10 -8 0 -8 10 -25 23 -39 13 -14 22 -29 20 -35 -2 -5 6 -18 17 -28 21 -19 27 -8 11 23 -4 9 -17 35 -27 57 -10 22 -27 48 -37 58 -11 11 -17 27 -14 38 4 16 1 19 -14 14 -13 -4 -19 -2 -19 8 0 8 -10 26 -21 41 -12 15 -19 30 -15 33 3 3 13 -8 23 -26 43 -75 37 -9 -6 73 l-26 48 -6 -78 c-4 -44 -10 -87 -14 -98 -5 -11 -3 -21 6 -26 17 -11 7 -22 -14 -14 -16 6 -19 57 -5 79 7 13 12 97 12 207 0 74 -3 90 -19 102 -14 10 -20 30 -23 77 -4 57 -3 62 11 51 13 -11 16 -10 22 7 7 22 -10 61 -25 61 -6 0 -10 15 -10 33 -1 29 -2 30 -14 14 -19 -25 -27 -140 -16 -217 6 -36 13 -86 16 -112 4 -27 10 -48 15 -48 5 0 9 -10 9 -22 -1 -16 -9 -7 -27 31 -22 45 -27 72 -31 165 -2 61 1 144 7 185 8 50 8 77 1 86 -11 13 -4 25 17 25 8 0 13 -11 13 -29 0 -26 14 -41 40 -41 4 0 11 23 14 52 4 28 14 64 22 79 7 15 14 37 14 49 0 11 5 20 10 20 14 0 13 -16 -4 -48 -15 -30 -27 -130 -16 -137 4 -3 15 4 25 15 13 14 21 17 25 9 6 -8 13 -8 28 0 11 6 29 11 39 10 14 0 12 -3 -7 -12 -40 -19 -66 -40 -79 -65 -16 -29 -5 -45 25 -38 27 7 32 -5 10 -24 -8 -6 -12 -18 -9 -26 6 -16 39 -19 48 -4 3 5 16 15 27 21 20 11 20 10 -2 -21 l-23 -33 22 -18 c13 -11 28 -16 33 -13 6 4 6 9 -2 14 -14 9 -2 38 25 60 21 17 30 6 10 -13 -8 -9 -15 -21 -15 -28 0 -7 6 -4 15 7 8 10 15 15 15 10 0 -5 7 -3 15 4 25 21 31 2 11 -35 -10 -18 -16 -39 -13 -47 4 -8 8 -5 13 10 3 12 19 29 35 38 32 16 37 10 13 -17 -14 -15 -14 -20 0 -54 9 -21 16 -52 15 -69 -1 -28 -3 -26 -17 19 l-16 50 -9 -48 c-6 -30 -16 -51 -28 -58 -11 -5 -19 -18 -19 -28 0 -10 -7 -24 -16 -32 -13 -11 -14 -9 -8 17 4 16 3 25 -2 21 -8 -8 -14 -59 -14 -122 -1 -23 -3 -27 -11 -15 -7 11 -8 7 -3 -13 4 -15 7 -53 8 -83 1 -49 4 -56 29 -67 16 -7 25 -17 22 -26 -3 -7 0 -20 7 -29 11 -13 10 -15 -9 -10 -23 6 -33 -14 -14 -26 5 -4 24 -53 42 -110 18 -57 39 -113 47 -123 12 -17 14 -17 32 7 11 14 20 30 20 35 0 6 9 27 20 48 11 21 18 42 15 47 -4 6 -3 16 2 23 4 6 8 17 8 22 2 23 42 94 49 87 5 -4 6 4 4 18 -5 37 -34 37 -46 1 -14 -40 -26 -40 -17 -1 5 25 3 30 -12 30 -11 0 -14 3 -7 8 6 4 14 26 18 50 6 43 4 47 -36 43 -12 -2 -16 3 -12 13 7 17 -30 36 -71 36 -21 0 -23 3 -18 39 3 23 1 41 -6 45 -17 11 -13 22 9 22 16 0 20 -7 20 -31 0 -25 8 -36 42 -58 24 -15 48 -25 56 -22 13 5 52 -28 52 -45 0 -5 9 -10 20 -10 11 0 20 -4 20 -10 0 -14 27 -12 34 3 3 6 3 -33 1 -87 -3 -76 -8 -102 -20 -108 -8 -5 -15 -16 -15 -25 0 -8 -14 -40 -31 -69 -28 -50 -29 -70 -1 -42 9 9 12 9 12 0 0 -25 50 -12 79 20 39 43 53 102 47 196 -4 58 -3 67 3 37 5 -22 12 -76 15 -119 4 -44 9 -82 11 -85 3 -2 13 3 23 12 10 10 23 17 28 17 24 0 224 213 224 239 1 9 9 34 20 56 11 22 19 45 20 52 0 6 5 24 10 39 8 21 14 24 22 16 7 -7 21 -12 33 -12 18 1 18 1 3 11 -25 14 -22 37 5 42 19 4 18 4 -5 6 -44 2 -33 26 12 28 31 1 40 -3 40 -15 1 -15 2 -15 14 1 8 10 20 15 30 11 9 -3 16 -2 16 4 0 14 -24 22 -48 15 -23 -5 -39 14 -24 29 6 6 24 3 53 -11 23 -12 48 -21 55 -21 7 0 14 -5 16 -12 2 -6 15 -12 29 -14 l24 -3 -23 11 c-13 7 -26 24 -29 39 -5 25 -9 27 -37 22 -31 -5 -31 -5 -8 11 27 21 29 40 2 31 -13 -4 -22 -1 -26 9 -3 9 -11 16 -16 16 -6 0 -8 -7 -4 -15 8 -23 -11 -18 -49 11 -32 24 -34 28 -20 47 8 12 11 26 6 36 -4 9 -7 33 -6 54 1 21 -2 40 -7 43 -4 3 -8 0 -8 -6 0 -6 -4 -8 -10 -5 -5 3 -10 14 -10 24 0 10 -26 44 -57 75 -74 74 -61 85 15 12 56 -54 82 -68 82 -46 0 6 -7 13 -15 16 -20 8 -19 24 1 24 9 0 14 6 12 13 -3 6 -11 12 -19 12 -8 0 -13 9 -12 20 9 71 9 145 1 145 -6 0 -7 11 -4 25 4 14 2 35 -5 46 -17 32 -3 34 33 4 30 -25 33 -26 45 -9 19 25 17 32 -15 48 -15 8 -34 27 -40 42 -15 30 -9 42 12 25 11 -9 15 -6 19 21 4 28 0 37 -25 59 l-31 26 24 6 c13 4 26 1 31 -6 4 -6 9 -9 12 -6 3 3 -6 29 -19 58 l-25 53 35 -31 c19 -17 49 -38 65 -46 27 -14 30 -14 30 0 0 9 -19 34 -42 55 -23 22 -38 43 -34 47 3 4 13 -3 21 -14 8 -12 28 -24 44 -28 16 -3 37 -15 47 -26 27 -30 32 -23 22 27 -8 36 -7 48 3 55 7 4 19 3 25 -2 15 -12 26 3 18 24 -3 10 1 17 14 19 19 3 19 3 0 23 -19 19 -19 19 -25 -3 -7 -28 -15 -28 -29 3 -8 17 -8 25 -1 28 6 2 11 12 12 23 2 10 9 41 16 67 11 38 11 52 1 67 -7 11 -12 31 -12 45 0 14 -4 25 -8 25 -13 0 -42 -68 -36 -85 4 -9 -1 -17 -10 -21 -11 -4 -16 -16 -14 -33 2 -14 -1 -28 -7 -31 -5 -3 -11 10 -13 28 -2 20 -9 32 -18 32 -8 0 -14 7 -14 16 0 8 -5 12 -10 9 -14 -9 -12 1 6 36 8 17 13 33 10 37 -3 3 -6 -1 -6 -8 0 -10 -3 -11 -10 -4 -7 7 -6 22 5 47 22 53 1 56 -36 5 -45 -63 -61 -97 -54 -118 7 -22 -9 -27 -21 -8 -5 8 -10 6 -16 -8 -7 -15 -7 -14 -4 6 3 14 1 31 -3 39 -7 11 -11 9 -20 -7 -6 -11 -11 -30 -11 -42 0 -17 -4 -20 -19 -15 -18 5 -19 2 -15 -27 5 -25 1 -38 -14 -51 -20 -18 -20 -18 -15 25 l5 43 -26 -29 c-14 -16 -26 -35 -26 -43 0 -7 -7 -13 -16 -13 -9 0 -34 -19 -55 -42 -21 -23 -41 -39 -45 -35 -4 3 -1 13 6 22 7 9 11 17 8 20 -12 12 -193 -219 -183 -235 4 -6 -6 -10 -27 -9 -30 0 -31 1 -10 10 13 5 21 13 17 19 -8 12 31 89 61 119 24 24 33 48 14 36 -17 -11 -11 16 10 42 11 14 17 30 14 35 -3 5 0 15 6 23 6 8 9 18 6 23 -6 10 34 25 43 17 2 -3 -1 -16 -7 -30 -27 -58 -3 -74 27 -19 35 63 76 130 93 153 10 13 18 30 18 38 0 8 7 21 16 30 10 11 14 30 13 60 -2 29 2 47 10 53 8 4 12 17 8 29 -3 14 0 21 9 21 8 0 14 -10 14 -24 0 -14 5 -28 10 -31 6 -3 10 -1 10 4 0 21 19 11 23 -12 4 -21 12 79 9 115 -2 22 14 24 22 2 3 -9 6 -56 6 -104 0 -49 3 -91 8 -94 4 -2 6 14 3 37 -2 28 1 44 11 51 8 6 17 30 21 54 6 45 17 66 24 45 2 -6 15 -24 29 -40 24 -28 24 -28 24 -4 0 17 3 21 13 14 6 -6 20 -10 29 -10 15 0 17 8 11 61 -3 34 -13 69 -21 79 -8 9 -16 27 -18 40 -1 12 -3 25 -3 28 -1 3 -10 15 -22 28 -12 12 -18 25 -14 29 4 4 17 -5 29 -20 26 -33 41 -37 25 -6 -21 40 -32 46 -56 35 -27 -12 -29 -29 -7 -47 19 -17 37 -50 26 -50 -4 0 -19 10 -32 22 -13 13 -33 21 -44 20 -14 -3 -17 0 -12 13 3 9 6 21 6 26 0 5 7 9 15 9 8 0 15 3 15 8 0 11 -58 34 -69 28 -5 -4 -12 -2 -16 4 -3 5 -17 10 -31 10 -13 0 -24 5 -24 10 0 6 8 10 18 10 10 0 25 9 35 20 19 23 22 34 6 24 -6 -3 -23 5 -37 18 -41 38 -87 47 -50 10 6 -6 9 -14 6 -17 -5 -5 -68 28 -134 72 -27 17 -27 17 -15 -4 16 -31 14 -38 -8 -19 -11 10 -16 25 -14 40 4 17 -3 29 -23 45 -15 12 -33 20 -40 17 -8 -3 -11 0 -8 8 3 8 -8 23 -25 36 -33 23 -40 40 -16 40 8 0 15 5 15 10 0 6 -11 10 -24 10 -14 0 -28 5 -32 12 -4 7 -3 8 4 4 18 -11 14 10 -4 29 -9 8 -24 13 -33 10 -22 -7 -47 21 -56 62 -3 17 -13 37 -21 44 -8 6 -12 20 -9 29 3 9 -1 23 -10 30 -19 16 -19 30 0 30 8 0 32 -22 52 -49 21 -27 50 -56 66 -65 26 -16 27 -16 27 1 0 11 -22 43 -50 73 -40 43 -48 58 -43 78 6 27 -3 25 -40 -6 -9 -8 -20 -13 -23 -9 -8 8 25 56 47 68 25 13 24 29 0 29 -11 0 -33 11 -49 25 -17 14 -37 23 -45 19 -21 -8 -30 12 -13 29 20 19 15 122 -5 122 -10 0 -15 -17 -19 -60 l-5 -59 -37 44 c-34 42 -36 68 -3 40 12 -10 15 -9 15 9 0 21 2 27 33 89 19 38 21 51 8 84 -5 13 -10 28 -11 33 -1 6 -5 15 -9 20 -4 6 -11 19 -15 29 -6 17 -4 17 10 5 15 -12 16 -10 10 31 -8 53 8 38 24 -22 6 -21 15 -38 19 -38 17 0 20 30 6 57 -21 41 -7 42 26 3 27 -31 29 -32 23 -10 -4 14 -10 27 -14 30 -4 3 -10 17 -13 31 -7 27 -49 48 -55 29 -2 -6 -10 -10 -17 -10 -7 0 -16 -16 -19 -35 -9 -46 -33 -46 -38 0 -2 20 0 35 7 35 6 0 7 3 0 8 -6 4 -16 25 -24 47 -8 22 -16 46 -18 53 -3 6 -1 12 4 12 5 0 13 -15 18 -32 6 -21 21 -38 38 -46 37 -18 49 -6 19 18 -22 18 -48 80 -34 80 15 -1 42 -28 42 -42 0 -8 11 -25 25 -38 14 -13 25 -18 25 -12 0 6 -4 14 -10 17 -5 3 -17 23 -26 43 -10 20 -19 40 -21 45 -8 14 14 7 38 -14 22 -19 24 -19 36 -3 9 12 13 14 13 4 0 -7 3 -10 6 -7 4 4 1 13 -6 22 -10 12 -10 15 2 15 8 0 18 -4 24 -9 5 -5 20 -12 33 -16 l24 -7 -28 36 c-16 20 -38 42 -49 48 -17 9 -19 8 -8 -3 6 -7 12 -20 12 -28 0 -10 -7 -8 -26 10 -14 13 -44 29 -67 36 -41 11 -41 11 -9 12 17 1 32 5 32 10 0 11 -43 57 -61 64 -12 5 -12 7 0 15 17 12 6 32 -19 32 -10 0 -21 4 -24 9 -3 5 -28 14 -56 21 -27 7 -48 15 -46 19 8 12 -8 27 -40 37 -39 11 -160 142 -190 205 -37 75 -38 111 -2 41 37 -69 90 -132 112 -132 8 0 21 -8 28 -17 27 -37 59 -56 98 -59 22 -2 40 0 40 5 0 11 -34 41 -48 41 -6 0 -18 12 -26 28 -8 15 -24 38 -35 51 -12 13 -21 30 -21 38 0 7 -5 13 -11 13 -7 0 -9 -10 -7 -25 4 -20 3 -23 -8 -14 -7 6 -16 27 -20 48 -7 46 -43 138 -66 172 -9 14 -16 28 -14 30 2 2 0 42 -4 89 -5 51 -4 106 2 137 10 51 10 51 -23 82 -38 34 -54 38 -63 16 -3 -8 -11 -15 -17 -15 -7 0 -5 8 6 20 14 16 16 23 7 32 -18 18 -16 72 2 65 19 -7 26 13 14 36 -8 16 -7 17 9 9 30 -17 66 -60 58 -71 -13 -21 20 -10 44 14 l23 25 30 -25 c36 -30 58 -32 58 -5 0 26 20 26 27 1 7 -27 33 -36 33 -11 0 17 7 20 55 20 43 0 56 4 65 19 13 26 13 31 -5 31 -9 0 -15 9 -15 25 0 14 -4 25 -9 25 -5 0 -7 -18 -4 -40 5 -39 5 -40 -24 -40 -37 0 -46 9 -30 28 10 13 7 15 -25 9 -29 -4 -37 -2 -41 13 -6 25 4 39 28 37 15 -2 20 4 20 23 0 15 8 29 20 35 11 6 21 21 21 33 2 27 15 42 21 25 6 -17 23 -16 23 1 0 8 7 16 15 20 8 3 15 12 15 21 0 18 -12 19 -29 3 -10 -11 -14 -10 -22 5 -15 25 -27 21 -34 -13 -8 -39 -21 -46 -35 -20 -8 14 -17 19 -30 15 -15 -5 -21 0 -26 22 -3 15 -8 36 -11 46 -2 9 3 40 12 67 9 27 14 54 10 60 -7 11 27 14 38 4 3 -4 0 -16 -8 -28 -19 -26 -19 -55 0 -62 23 -9 18 -26 -5 -19 -17 5 -20 2 -20 -28 0 -40 5 -46 31 -40 13 4 19 14 19 34 0 18 5 29 14 29 8 0 16 7 20 15 3 8 15 15 27 15 18 0 19 2 9 15 -7 8 -20 15 -30 15 -10 0 -20 7 -24 15 -7 18 16 20 46 4 12 -7 53 -12 90 -13 46 -1 72 -6 77 -15 5 -7 14 -10 20 -7 17 11 13 52 -9 77 -23 29 -27 13 -4 -19 9 -13 14 -26 11 -29 -9 -9 -57 31 -52 44 5 14 -32 63 -47 63 -10 0 -8 -16 8 -55 4 -11 -7 -3 -25 18 -18 20 -38 37 -45 37 -22 1 -56 38 -50 55 4 11 -6 27 -32 50 -45 39 -175 80 -219 69 -28 -7 -59 19 -50 43 2 7 -7 24 -20 37 l-25 25 0 -25 c0 -13 7 -36 16 -49 16 -25 16 -25 -19 -25 -20 0 -38 4 -41 9 -3 5 -24 9 -47 9 -53 1 -66 13 -51 47 8 17 20 25 36 25 13 0 26 5 28 11 3 8 10 9 23 2 27 -14 45 -6 45 21 0 34 9 37 51 15 46 -23 52 -9 9 23 -32 23 -41 44 -14 34 8 -3 27 -3 41 0 l26 7 -31 26 c-24 22 -28 30 -18 42 6 9 17 14 24 12 6 -3 12 0 12 6 0 6 -7 11 -15 11 -8 0 -15 7 -15 15 0 9 -6 12 -15 9 -12 -5 -15 3 -15 36 0 33 -3 41 -15 36 -16 -6 -17 -1 -6 29 6 14 3 24 -8 32 -15 12 -15 14 1 26 12 10 16 26 13 64 -4 63 -8 70 -45 78 -20 4 -27 11 -23 21 4 10 -2 14 -21 14 -27 0 -27 0 -20 63 7 70 -9 147 -31 147 -7 0 -26 25 -41 55 -30 62 -57 84 -80 64 -8 -6 -14 -18 -14 -25 0 -10 -7 -13 -24 -8 -18 4 -27 1 -36 -16 -8 -14 -17 -19 -30 -15 -13 4 -20 0 -25 -14 -4 -12 -12 -17 -24 -14 -11 3 -24 -3 -33 -16 -20 -28 -58 -41 -86 -28 -18 8 -25 8 -32 -3 -7 -11 1 -18 35 -28 42 -12 61 -32 33 -32 -7 0 5 -9 27 -20 22 -11 32 -18 23 -16 -10 3 -20 1 -23 -4 -7 -11 32 -33 45 -25 6 3 10 -1 10 -9 0 -9 7 -16 16 -16 9 0 29 -9 45 -21 45 -31 35 -2 -13 44 -24 22 -31 32 -17 23 14 -9 29 -13 32 -10 4 4 16 -5 28 -19 23 -31 39 -35 39 -11 0 13 3 14 13 5 10 -7 17 -7 24 0 8 8 13 8 17 0 11 -18 24 -13 29 12 l4 22 8 -22 c4 -12 13 -24 21 -27 19 -7 18 -42 -1 -50 -8 -3 -15 -10 -15 -16 0 -17 -24 -37 -38 -32 -6 2 -12 0 -12 -5 0 -16 22 -32 36 -26 9 3 14 -2 14 -12 0 -10 9 -33 21 -51 23 -37 17 -44 -15 -16 -19 16 -19 15 2 -21 24 -41 28 -67 12 -67 -5 0 -10 9 -10 20 0 21 -33 60 -51 60 -6 0 -9 -7 -6 -15 4 -8 2 -17 -3 -20 -5 -3 -12 5 -15 18 -4 12 -14 28 -24 34 -15 9 -17 7 -14 -16 5 -35 -36 -57 -62 -32 -16 15 -17 14 -13 -11 3 -16 3 -28 0 -28 -14 0 -98 59 -138 98 -21 20 -36 15 -28 -10 3 -13 10 -24 15 -26 16 -7 60 -44 56 -49 -3 -2 -20 5 -40 16 -50 28 -52 16 -6 -32 39 -41 47 -57 30 -57 -5 0 -11 -10 -13 -22 -2 -19 -9 -23 -43 -24 -22 0 -62 3 -90 8 -27 5 -56 9 -62 10 -7 1 -23 13 -35 27 -13 14 -15 19 -5 12 23 -18 32 -8 17 18 -16 31 -2 47 21 22 10 -11 19 -25 19 -31 0 -12 10 -13 29 -1 10 6 5 15 -22 36 -19 16 -38 27 -42 26 -4 -2 -11 2 -14 7 -23 36 -129 81 -118 50 2 -7 14 -13 26 -12 11 0 21 -2 21 -6 0 -4 16 -15 35 -26 19 -10 35 -22 35 -26 0 -15 -29 -8 -57 15 -23 19 -95 57 -107 57 -2 0 -2 -24 0 -52 l3 -53 -19 25 c-11 14 -20 40 -20 58 0 19 -8 40 -21 53 -11 11 -18 26 -16 32 4 14 -17 37 -35 37 -8 -1 -6 -6 6 -15 11 -8 17 -18 13 -21 -12 -13 -37 6 -63 48 -33 53 -29 49 -50 52 -10 2 -24 12 -32 24 -13 20 -13 22 2 22 13 0 14 5 5 27 -6 15 -15 34 -22 41 -6 8 -11 24 -12 35 0 23 -39 47 -78 49 -12 1 -31 9 -42 18 -28 25 -65 42 -65 32 0 -5 14 -21 31 -35 18 -14 37 -36 43 -49 6 -13 27 -28 46 -34 36 -12 53 -34 25 -34 -9 0 -13 -4 -10 -10 3 -5 17 -10 31 -10 15 0 24 -6 24 -16 0 -11 -6 -15 -20 -11 -11 3 -20 1 -20 -4 0 -5 4 -9 9 -9 15 0 41 -30 41 -46 0 -13 -2 -13 -16 1 -23 23 -26 15 -11 -36 9 -32 18 -45 34 -47 14 -2 20 -8 17 -17 -3 -8 4 -28 16 -45 17 -25 28 -30 60 -30 37 0 56 -10 43 -24 -3 -3 -12 -1 -19 5 -9 7 -25 7 -56 -2 -24 -7 -45 -14 -47 -15 -9 -7 82 -104 97 -104 21 0 79 -46 71 -55 -4 -3 -29 5 -55 18 -63 32 -94 41 -94 28 0 -6 6 -11 13 -11 15 -1 112 -89 105 -96 -3 -3 -24 13 -48 36 -23 22 -44 40 -46 40 -13 0 0 -25 31 -59 19 -21 35 -44 35 -50 0 -7 4 -10 9 -7 13 9 41 -28 32 -42 -6 -10 -17 -2 -41 28 -18 22 -55 53 -84 67 -44 22 -48 27 -31 33 23 9 12 16 -39 24 -16 3 -46 17 -67 31 -43 28 -54 31 -43 13 4 -7 -1 -6 -12 3 -10 9 -37 23 -59 30 -46 15 -73 34 -35 24 21 -5 25 -2 26 19 2 23 -22 44 -34 31 -3 -3 0 -5 6 -5 7 0 12 -5 12 -10 0 -6 -13 -9 -30 -8 -16 1 -27 4 -25 6 5 5 -57 49 -89 63 -12 6 -39 21 -61 34 -22 14 -49 29 -60 34 -12 5 -27 16 -34 25 -7 9 -19 16 -25 16 -6 0 -19 8 -28 18 -9 9 -22 22 -27 27 -28 26 -63 76 -58 82 4 3 18 -2 31 -11 35 -22 38 -20 18 14 -9 16 -23 30 -30 30 -7 0 -25 11 -39 25 -24 21 -25 25 -10 31 10 3 24 1 32 -6 9 -7 18 -11 20 -8 2 2 -14 18 -37 36 -39 30 -67 37 -40 10 7 -7 12 -16 12 -20 0 -14 -27 -9 -40 7 -9 11 -9 15 -1 15 7 0 5 10 -6 28 -21 33 -31 40 -63 49 -14 3 -32 16 -41 27 -9 12 -34 30 -55 41 -22 10 -47 28 -58 38 -17 17 -75 57 -221 152 -67 44 -218 166 -212 172 2 2 24 -8 48 -22 24 -13 53 -25 63 -25 37 0 238 -123 300 -183 17 -16 56 -46 86 -65 30 -20 75 -54 100 -78 93 -88 192 -157 217 -152 21 4 14 10 -62 63 -33 23 -43 35 -31 35 15 0 16 3 6 15 -22 26 -5 26 51 1 30 -13 61 -27 69 -30 38 -17 59 -34 52 -42 -4 -4 1 -2 11 5 13 10 20 11 31 2 18 -15 160 -25 151 -11 -3 6 -23 10 -44 10 -24 0 -52 9 -74 24 -19 13 -44 27 -55 30 -11 4 -22 18 -25 32 -3 18 -1 22 6 15 6 -6 24 -11 40 -11 22 0 28 4 23 15 -4 11 1 15 19 15 39 0 29 14 -19 29 -44 13 -66 36 -43 44 8 3 6 11 -7 23 -13 14 -20 15 -23 7 -6 -16 -70 31 -78 58 -4 10 -12 19 -20 19 -7 0 -21 12 -31 28 -9 15 -25 33 -33 40 -12 10 -13 15 -3 18 6 3 9 10 6 16 -3 5 -12 1 -20 -10 -13 -19 -16 -19 -44 -5 -27 13 -29 17 -18 31 11 14 10 15 -5 9 -14 -5 -20 -2 -24 13 -3 11 -9 20 -14 20 -5 0 -6 -7 -3 -15 7 -16 -11 -21 -21 -5 -3 5 -21 17 -40 26 -19 9 -35 20 -35 25 0 5 -8 9 -17 9 -13 0 -15 2 -5 8 9 6 5 12 -13 20 -14 7 -32 12 -40 12 -8 0 -15 7 -15 15 0 8 -7 15 -15 15 -9 0 -37 22 -63 49 -26 27 -69 59 -97 70 l-50 22 30 -31 c33 -35 26 -39 -16 -9 -16 11 -37 18 -45 15 -9 -3 -12 -2 -8 5 3 6 -3 17 -15 25 -12 8 -21 21 -21 29 0 38 -171 137 -240 139 -27 0 -40 5 -40 14 0 9 -7 12 -19 9 -12 -3 -22 1 -25 9 -3 8 -15 14 -28 14 -14 0 -19 3 -12 10 5 5 61 13 124 16 130 7 145 7 218 -1 57 -7 73 8 20 19 -57 12 -225 19 -245 11 -45 -19 -116 4 -111 37 2 16 -3 21 -27 24 -18 2 -34 -2 -41 -11 -17 -23 -56 -34 -82 -22 -17 8 -29 8 -44 -2 -32 -20 -29 -8 8 32 19 20 32 37 27 37 -4 0 6 9 22 20 l30 20 -41 0 c-29 0 -44 -5 -48 -15 -3 -9 -28 -26 -56 -39 -28 -13 -60 -32 -70 -41 -29 -26 -36 -11 -11 23 28 41 27 61 -2 34 -13 -12 -31 -22 -41 -22 -13 0 -16 -5 -11 -20 4 -14 2 -20 -8 -20 -8 0 -18 -8 -22 -17 -6 -17 -7 -17 -16 0 -8 13 -7 22 1 33 10 11 9 14 -9 14 -17 0 -21 6 -21 35 0 35 -19 51 -21 18 -2 -51 -11 -85 -31 -117 -24 -36 -38 -45 -38 -23 0 18 -39 49 -51 41 -6 -3 -8 -12 -5 -20 3 -7 1 -16 -4 -19 -6 -4 -10 -15 -10 -26 0 -10 -4 -19 -10 -19 -5 0 -10 15 -10 34 0 39 -26 69 -36 42 -3 -9 -4 -38 -2 -66 4 -47 3 -50 -20 -50 -14 0 -22 5 -20 12 6 18 -46 68 -70 68 -21 0 -35 30 -32 67 1 12 -7 27 -18 34 -16 10 -18 16 -9 30 10 16 12 16 44 -2 43 -24 43 -24 43 6 l0 25 -157 0 c-112 -1 -153 -4 -140 -11 9 -5 17 -19 17 -29 0 -23 26 -39 53 -32 15 4 18 2 12 -8 -4 -7 -7 -30 -7 -52 2 -41 -11 -48 -49 -25 -18 11 -24 8 -50 -21 -32 -35 -34 -59 -4 -54 10 2 15 -2 13 -9 -5 -14 -18 -21 -66 -37 -29 -9 -33 -9 -28 4 3 9 6 19 6 24 0 5 9 12 20 15 11 3 20 14 20 23 0 10 7 27 15 39 20 29 11 69 -25 108 -15 17 -30 38 -33 48 -5 14 -19 17 -87 17 -44 0 -80 -4 -80 -9 0 -5 5 -22 11 -38 19 -46 27 -93 19 -98 -5 -3 -18 8 -30 25 -11 16 -33 37 -48 46 -15 8 -35 29 -44 45 -22 38 -42 38 -35 0 4 -19 1 -33 -8 -41 -15 -12 -16 -10 -40 58 -3 8 -35 12 -112 12 l-108 0 3 -79 c4 -71 2 -80 -16 -90 -22 -12 -32 1 -32 45 0 13 -12 46 -27 74 l-28 50 -447 0 c-347 0 -448 -3 -452 -12 -5 -10 -7 -10 -12 0 -4 9 -57 12 -215 12 l-209 0 0 -270z m1590 190 c0 -6 11 -15 24 -20 13 -5 32 -21 43 -35 39 -56 99 -108 151 -131 62 -28 130 -32 138 -9 4 8 10 15 14 15 18 0 -17 -63 -43 -76 -17 -10 -30 -26 -34 -45 -6 -33 -7 -34 -45 -43 -24 -5 -27 -3 -33 32 -5 32 -13 42 -41 55 -19 10 -53 17 -75 17 -32 0 -47 -7 -84 -41 -25 -23 -51 -60 -61 -85 l-17 -45 -22 21 c-12 11 -26 20 -32 20 -16 0 -22 107 -7 149 6 20 19 37 28 39 11 2 15 10 11 22 -8 26 22 55 41 39 19 -16 31 -3 18 19 -8 13 -7 23 4 40 13 19 13 25 2 32 -7 4 -10 15 -7 24 7 18 27 22 27 6z m936 -194 c3 -13 4 -32 2 -42 -2 -13 2 -18 12 -15 8 2 29 6 45 9 30 5 30 5 11 -17 -19 -21 -19 -21 15 -21 l34 -1 -25 -14 c-14 -8 -36 -15 -50 -15 -14 0 -32 -5 -40 -11 -11 -8 -5 -9 23 -4 55 9 39 -8 -23 -25 -28 -8 -56 -21 -63 -29 -9 -12 -9 -13 1 -7 6 4 12 3 12 -3 0 -16 -38 -33 -45 -20 -13 20 -105 -60 -97 -85 2 -4 -5 -6 -14 -2 -9 3 -23 1 -30 -5 -10 -8 -14 -8 -14 -1 0 6 8 16 18 22 15 10 14 10 -5 5 -37 -10 -35 11 5 41 41 32 83 77 76 83 -2 2 -12 -3 -21 -12 -10 -8 -39 -25 -65 -36 -40 -17 -48 -18 -48 -6 0 11 -12 15 -45 15 -25 0 -45 -4 -45 -10 0 -5 -7 -10 -16 -10 -9 0 -35 -16 -58 -36 -72 -62 -112 -88 -124 -80 -19 12 -247 -256 -296 -349 -25 -46 -66 -95 -66 -78 0 4 -7 -2 -15 -13 -13 -16 -13 -13 1 20 17 42 13 56 -11 36 -8 -7 -15 -9 -15 -4 0 18 17 34 51 48 46 19 78 54 60 65 -17 11 -16 13 89 139 47 56 95 117 108 135 13 17 32 40 43 50 11 11 18 21 15 24 -3 3 -29 -17 -58 -45 -57 -53 -113 -102 -120 -102 -6 0 -5 44 1 50 3 3 15 15 25 28 38 44 -7 23 -51 -25 l-43 -46 15 38 c9 20 13 40 9 44 -4 3 -9 1 -11 -6 -3 -9 -10 -9 -29 -1 -13 6 -24 14 -24 17 0 3 21 18 45 33 l44 27 -6 -31 c-5 -27 -4 -30 11 -25 10 4 30 10 44 14 35 8 127 67 144 91 7 11 24 23 37 27 15 5 20 10 12 14 -14 9 0 23 33 35 17 6 17 5 5 -10 -12 -15 -11 -16 11 -9 33 10 37 14 21 24 -8 6 2 15 34 30 26 12 66 34 89 49 57 37 96 39 122 7 17 -21 25 -24 45 -17 13 5 51 13 83 17 50 6 58 5 53 -8 -8 -21 14 -36 38 -26 11 4 16 8 11 8 -5 1 -3 7 3 15 10 12 8 19 -8 35 -26 26 -26 26 -1 28 13 1 22 -6 26 -21z m-1959 -114 c22 2 29 -1 31 -19 2 -16 -3 -22 -20 -25 -35 -5 -34 -34 1 -52 38 -20 51 -20 51 -1 0 8 7 15 15 15 9 0 15 -9 15 -25 0 -14 5 -25 10 -25 6 0 10 5 10 10 0 15 41 12 73 -5 34 -17 57 -11 50 16 -5 17 -1 18 40 13 37 -5 51 -3 77 16 31 22 35 22 117 11 97 -14 119 -24 139 -66 8 -16 23 -43 33 -60 11 -16 20 -36 20 -42 1 -14 -25 -18 -31 -5 -1 4 -26 26 -54 49 -36 30 -54 39 -62 31 -7 -7 -15 -1 -26 21 -15 28 -56 45 -56 23 0 -15 -79 -51 -99 -45 -13 3 -21 1 -21 -6 0 -7 -4 -9 -10 -6 -23 14 -7 -9 38 -55 35 -36 62 -53 96 -62 26 -7 52 -21 57 -30 5 -10 21 -18 34 -18 19 0 25 -5 25 -23 0 -13 -5 -28 -11 -34 -17 -17 -3 -31 36 -39 19 -3 35 -9 35 -13 0 -4 -9 -26 -20 -49 -27 -56 -52 -53 -75 11 -11 31 -30 57 -53 75 -20 15 -53 44 -73 64 -21 20 -47 39 -57 42 -10 4 -39 35 -63 71 -24 35 -48 65 -52 65 -5 0 -20 -9 -34 -20 -14 -11 -35 -20 -47 -20 -14 0 -26 -11 -35 -32 -20 -45 -17 -86 9 -131 12 -21 20 -40 18 -42 -11 -11 -111 51 -143 88 -74 86 -94 176 -70 314 7 41 7 42 30 27 13 -8 36 -14 52 -12z m-322 -196 c28 -1 55 -4 60 -7 6 -4 27 -5 48 -3 36 3 37 2 37 -30 0 -59 -28 -131 -64 -164 -34 -31 -54 -81 -41 -103 10 -15 69 -39 98 -39 13 0 32 9 43 21 22 24 60 19 86 -12 21 -25 87 -22 117 5 19 18 20 17 27 -9 5 -22 2 -31 -19 -49 -25 -20 -26 -24 -16 -65 5 -24 7 -46 4 -49 -8 -8 -53 38 -83 85 -15 24 -31 43 -37 44 -30 2 -49 9 -56 21 -6 9 -19 5 -53 -19 -25 -18 -62 -35 -82 -39 -40 -7 -84 -43 -84 -68 0 -8 9 -31 21 -50 23 -39 74 -59 91 -35 7 10 7 7 3 -8 -5 -18 2 -27 35 -49 36 -24 41 -31 36 -56 -5 -24 -2 -28 17 -28 13 0 28 5 34 11 7 7 16 3 31 -15 11 -14 25 -26 31 -26 6 0 11 -7 11 -15 0 -8 3 -15 8 -15 4 0 16 -19 27 -42 15 -31 17 -42 7 -46 -7 -2 -20 -18 -28 -34 -12 -24 -18 -28 -25 -17 -13 22 -27 0 -39 -61 -6 -30 -16 -63 -23 -74 -7 -12 -19 -41 -27 -66 l-14 -45 -7 85 c-3 47 -14 105 -23 130 -10 25 -23 64 -30 88 -13 47 -28 62 -64 62 -43 0 -110 -56 -133 -112 -19 -47 -74 -28 -68 24 2 13 -2 32 -8 43 -6 11 -14 45 -17 76 -8 61 -3 69 48 86 43 13 55 37 32 62 -18 20 -18 23 4 103 43 160 52 188 61 188 5 0 9 6 9 13 0 8 7 28 16 46 25 50 -3 150 -61 219 -24 29 -33 33 -59 28 -29 -5 -30 -5 -11 9 13 11 29 13 50 9 16 -4 53 -8 80 -8z m2415 -86 c10 0 22 -4 25 -10 3 -5 -3 -10 -13 -10 -17 0 -36 -30 -33 -52 2 -13 -47 -9 -88 8 -45 18 -92 16 -99 -5 -4 -11 3 -13 31 -8 24 4 39 1 47 -8 6 -8 24 -16 38 -18 15 -2 5 -4 -23 -5 -58 -1 -145 16 -145 29 0 5 -9 9 -20 9 -11 0 -20 -4 -20 -10 0 -5 7 -10 15 -10 8 0 15 -4 15 -8 0 -5 36 -16 80 -26 61 -14 84 -24 92 -40 9 -18 9 -19 -3 -10 -14 12 -61 21 -139 29 -67 7 -92 14 -85 26 4 6 -9 7 -37 4 -40 -6 -42 -5 -24 9 20 16 20 16 0 16 -10 0 -48 -9 -84 -20 -73 -22 -80 -23 -80 -12 0 9 48 27 100 37 33 7 85 35 65 35 -6 0 4 8 20 18 45 27 119 45 154 37 20 -4 31 -3 31 4 0 6 21 11 48 12 26 0 56 4 67 8 14 6 24 3 33 -10 7 -11 22 -19 32 -19z m-1860 -258 c19 -16 45 -34 57 -41 12 -6 30 -25 40 -41 23 -40 42 -44 110 -24 88 25 103 32 103 49 0 21 17 19 30 -5 8 -16 17 -19 38 -14 15 4 29 11 30 16 2 4 13 13 24 19 19 10 21 9 15 -19 l-6 -30 47 15 c26 8 63 19 82 23 19 4 43 11 53 15 24 10 23 -17 -2 -39 -21 -19 -17 -50 5 -42 18 7 17 -2 -6 -44 -11 -19 -19 -28 -20 -19 0 32 -100 39 -130 9 -11 -11 -26 -20 -33 -20 -8 0 -17 -3 -21 -7 -4 -5 -12 -9 -17 -9 -5 -1 -13 -2 -19 -3 -5 0 -6 -9 -3 -18 5 -13 2 -15 -11 -10 -11 4 -19 1 -23 -10 -4 -9 -1 -19 5 -21 7 -2 12 -12 12 -23 0 -11 7 -19 16 -19 8 0 13 -4 10 -8 -3 -5 0 -27 6 -50 25 -99 -28 -91 -77 12 -38 80 -116 166 -151 166 -25 0 -111 -89 -147 -151 -12 -21 -26 -39 -32 -39 -5 0 -24 14 -42 32 -25 24 -33 40 -33 68 0 23 -7 41 -20 53 -17 14 -19 24 -14 60 4 23 15 62 25 86 11 24 19 56 19 71 0 26 10 37 35 39 6 1 26 -12 45 -27z m1788 11 c-6 -7 -30 -13 -54 -13 -23 0 -46 -5 -50 -12 -5 -8 14 -9 74 -4 54 4 83 3 87 -4 4 -6 5 -14 2 -16 -5 -5 -82 -5 -252 -1 -49 2 -127 4 -173 5 -50 1 -81 6 -77 12 3 5 48 8 103 6 62 -2 110 2 132 10 19 7 29 13 23 13 -7 1 -13 4 -13 9 0 4 47 7 104 7 82 0 102 -3 94 -12z m336 -170 l-7 -28 21 25 21 25 1 -24 c0 -24 0 -24 20 -6 28 25 166 34 156 10 -4 -12 0 -14 19 -9 17 4 27 0 37 -15 14 -23 44 -28 51 -8 3 9 7 9 20 -1 9 -8 25 -11 37 -7 12 4 26 0 36 -9 8 -9 25 -17 37 -18 39 -2 42 -3 65 -23 13 -11 33 -28 45 -38 11 -10 30 -19 41 -22 12 -2 35 -7 51 -11 17 -4 33 -7 38 -6 4 1 7 -3 7 -9 0 -16 26 -39 44 -39 9 0 16 -4 16 -10 0 -5 7 -7 14 -4 10 4 20 -6 30 -30 16 -38 25 -43 44 -24 10 10 16 7 28 -10 8 -12 20 -22 25 -22 15 0 69 -53 69 -67 0 -6 10 -13 23 -15 14 -2 21 -9 21 -20 -1 -10 8 -20 20 -24 32 -11 65 -37 66 -54 0 -18 57 -46 122 -60 119 -25 273 -99 339 -161 92 -88 112 -105 106 -86 -8 21 6 22 24 1 7 -8 31 -25 53 -36 27 -14 36 -23 27 -26 -8 -3 -17 0 -19 7 -2 6 -11 11 -20 11 -8 0 7 -15 34 -34 27 -19 54 -40 59 -46 6 -6 19 -19 29 -28 43 -38 123 -121 162 -167 54 -65 154 -214 154 -229 0 -6 8 -23 17 -36 22 -31 73 -138 79 -165 19 -84 17 -113 -11 -149 -36 -48 -162 -125 -380 -234 -99 -50 -235 -128 -302 -174 -346 -237 -435 -295 -517 -334 -77 -38 -90 -42 -103 -29 -15 16 -43 19 -80 9 -32 -9 -28 -33 7 -47 l29 -13 -52 -34 c-103 -68 -295 -159 -477 -225 -296 -109 -308 -113 -350 -140 -22 -14 -42 -25 -45 -25 -3 0 -23 -12 -45 -26 -22 -15 -43 -24 -46 -21 -5 5 12 38 48 91 4 6 12 5 23 -4 10 -8 19 -10 25 -4 14 14 31 115 25 146 -4 15 -1 36 5 48 18 34 21 67 7 82 -14 14 -34 94 -42 163 -2 22 -9 65 -14 95 -15 79 -34 360 -31 463 1 82 0 89 -19 94 -12 3 -21 10 -21 15 0 5 8 7 18 4 9 -3 24 -1 32 4 13 9 13 11 0 20 -8 5 -24 7 -34 4 -15 -5 -18 -2 -14 14 5 17 1 20 -31 20 -38 1 -97 -15 -120 -32 -10 -8 -18 -5 -30 11 -16 19 -25 20 -87 16 -48 -4 -75 -11 -89 -24 -12 -10 -32 -20 -45 -22 -13 -2 -26 -9 -28 -15 -2 -7 -17 -12 -34 -12 -36 0 -155 -46 -181 -70 -10 -10 -30 -20 -45 -23 -15 -3 -47 -24 -71 -46 -25 -23 -50 -40 -57 -39 -6 2 -35 -21 -63 -50 -28 -30 -56 -52 -63 -50 -6 2 -22 -6 -36 -19 -14 -13 -36 -23 -48 -23 -21 0 -24 5 -26 43 0 23 -1 49 0 57 1 8 4 62 8 120 4 73 10 107 20 115 8 5 14 19 13 30 -6 63 2 105 27 134 16 20 24 39 21 51 -3 11 5 41 17 68 13 26 26 64 29 85 3 20 15 49 26 63 12 15 18 31 15 36 -8 12 20 70 46 93 11 10 18 26 15 35 -8 25 36 70 69 70 20 0 27 4 23 14 -3 7 1 23 9 35 8 12 12 26 9 32 -4 6 2 13 14 16 12 3 21 10 21 16 0 15 61 77 76 77 11 0 25 28 39 77 3 12 15 25 26 28 18 6 40 41 44 70 5 35 19 64 32 69 8 4 13 12 10 19 -3 8 11 31 31 53 20 21 37 44 38 49 0 6 2 16 2 24 1 8 8 11 18 7 11 -4 18 1 21 14 4 15 11 19 25 14 25 -8 45 10 54 49 9 44 34 97 61 130 13 16 23 34 23 42 0 7 6 18 14 24 8 6 11 22 8 37 -3 18 -1 25 9 23 17 -4 90 61 83 72 -3 5 0 18 6 30 9 15 15 18 23 10 19 -19 39 -13 32 9 -5 16 -2 20 15 20 20 0 22 4 16 35 -4 22 -3 35 4 35 5 0 10 -8 11 -17 0 -13 2 -14 6 -4 8 19 36 51 45 51 5 0 5 -12 2 -27z m2942 -929 c14 -4 24 -2 24 4 0 7 14 9 38 5 45 -7 49 -10 35 -24 -6 -6 -9 -18 -6 -25 3 -8 1 -14 -5 -14 -6 0 -12 6 -15 13 -2 6 -7 9 -11 6 -14 -13 7 -35 56 -60 49 -25 81 -57 42 -42 -13 5 -15 3 -9 -8 5 -8 -6 -2 -24 14 -18 15 -38 27 -46 27 -7 0 -15 9 -18 20 -3 11 -10 20 -16 20 -6 0 -8 -7 -5 -15 4 -10 0 -15 -11 -15 -15 0 -15 -2 -4 -16 10 -13 10 -19 0 -37 -11 -17 -11 -22 3 -32 20 -15 21 -25 1 -25 -8 0 -15 -9 -15 -19 0 -22 47 -38 63 -22 22 22 109 8 100 -15 -14 -36 52 1 75 42 5 9 15 14 21 10 8 -5 4 -17 -14 -38 -14 -16 -25 -38 -25 -48 0 -23 -16 -35 -25 -19 -4 5 -13 8 -20 5 -16 -6 -85 14 -85 25 0 4 12 12 28 17 37 14 5 15 -58 1 -45 -10 -54 -9 -71 7 -10 9 -19 13 -19 7 0 -5 21 -25 47 -44 25 -19 53 -38 60 -44 10 -7 16 -6 22 4 12 19 41 6 41 -18 0 -23 -16 -36 -25 -21 -3 5 -11 10 -17 10 -6 0 -4 -8 5 -18 22 -24 11 -35 -18 -16 -19 13 -26 12 -58 -1 -20 -8 -40 -23 -46 -32 -9 -17 -11 -16 -35 6 -33 31 -33 15 -1 -29 30 -41 31 -44 5 -28 -12 7 -32 32 -46 56 -14 23 -29 40 -35 37 -5 -4 -7 -11 -4 -16 4 -5 1 -9 -4 -9 -6 0 -11 8 -11 18 0 10 -5 23 -12 30 -9 9 -8 12 6 12 12 0 16 5 12 16 -15 40 -19 67 -7 60 14 -9 14 -3 0 44 -21 71 9 117 44 68 13 -19 16 -20 16 -5 1 9 -4 17 -11 17 -6 0 -8 3 -5 7 4 3 -2 12 -12 20 -19 13 -23 54 -8 70 4 3 7 17 7 30 0 18 5 23 25 23 14 0 25 5 25 11 0 6 7 8 16 5 9 -3 27 -9 40 -12z m-241 -263 c6 -68 26 -155 41 -176 8 -11 14 -29 14 -40 -1 -18 -3 -17 -25 8 -14 16 -26 22 -26 15 -1 -7 -2 -20 -3 -28 -2 -29 -136 1 -136 30 0 5 -10 18 -21 29 -24 22 -33 69 -17 88 15 18 83 16 124 -3 19 -9 37 -14 40 -11 3 3 2 37 -3 76 -5 40 -6 68 -1 63 5 -5 11 -28 13 -51z m-5437 -47 c3 -34 3 -34 152 -52 46 -6 55 -10 55 -27 0 -15 -8 -21 -32 -23 -24 -2 -33 -8 -33 -21 0 -23 -17 -37 -53 -46 -15 -4 -27 -11 -27 -15 0 -15 30 -32 46 -26 14 5 15 4 5 -8 -13 -16 1 -32 19 -21 6 3 14 -5 20 -19 5 -14 13 -26 17 -26 5 0 14 -9 21 -21 12 -19 11 -20 -25 -13 -54 9 -72 21 -79 49 -4 15 -13 25 -24 25 -19 0 -30 19 -30 50 0 9 -7 23 -15 30 -8 7 -15 25 -15 41 0 15 -5 31 -10 34 -6 3 -7 17 -4 30 4 16 0 30 -10 40 -22 23 -21 57 2 53 11 -2 18 -14 20 -34z m5233 -320 c-6 -23 -11 -68 -11 -99 0 -48 3 -56 18 -53 10 2 18 14 20 31 2 18 9 27 23 29 10 0 25 1 32 2 6 1 13 -8 14 -19 4 -37 28 -95 39 -95 14 0 24 -59 12 -66 -5 -3 -15 0 -23 6 -11 9 -15 9 -15 1 0 -12 -35 -14 -92 -5 -34 6 -38 10 -38 35 0 16 -5 48 -12 72 -6 25 -8 52 -3 63 4 10 7 27 6 38 -2 10 2 30 7 45 6 14 14 44 18 66 6 32 9 35 12 16 2 -13 -1 -43 -7 -67z m-14 -306 c8 -19 9 -28 1 -30 -18 -6 1 -64 45 -130 43 -65 79 -131 129 -232 32 -64 33 -90 1 -29 -71 137 -92 174 -129 228 -23 33 -68 85 -100 116 -95 90 -93 84 -48 123 l39 34 25 -27 c14 -15 30 -39 37 -53z m-2573 -664 c-4 -43 -3 -65 3 -61 12 7 53 -46 53 -68 0 -9 8 -27 17 -41 13 -21 14 -30 5 -45 -7 -10 -12 -29 -12 -41 0 -17 -9 -27 -32 -36 -66 -27 -80 -37 -95 -67 -9 -16 -20 -33 -25 -36 -10 -6 -16 -16 -52 -80 -10 -19 -25 -38 -32 -42 -8 -4 -14 -16 -14 -25 0 -21 -44 -51 -135 -92 -38 -18 -92 -42 -120 -55 -91 -41 -259 -98 -365 -125 -25 -6 -54 -14 -65 -17 -18 -5 -17 -3 4 18 23 22 23 23 5 30 -18 7 -18 8 0 8 14 1 16 5 10 19 -4 9 -8 64 -7 122 0 97 3 110 29 158 16 29 34 63 41 75 12 23 111 64 213 87 132 30 220 63 283 108 26 18 47 31 47 27 0 -3 13 3 29 14 16 12 33 21 38 21 5 0 26 23 48 50 22 28 43 50 47 50 5 0 8 5 8 10 0 14 63 99 73 100 5 0 5 -30 1 -66z m-2436 -289 c-16 -13 -28 -28 -28 -34 0 -15 -151 -86 -159 -74 -3 6 -16 13 -28 17 -41 13 -26 76 17 76 16 0 30 5 32 11 5 16 76 0 80 -18 2 -10 16 -5 52 21 54 38 78 39 34 1z m596 -253 c-29 -24 -54 -61 -54 -77 0 -4 12 3 26 14 43 34 65 25 24 -9 -35 -30 -30 -42 6 -15 22 17 54 20 54 5 0 -5 -6 -10 -13 -10 -22 0 -77 -58 -71 -74 5 -12 2 -15 -10 -10 -10 4 -22 0 -29 -9 -8 -10 -22 -13 -44 -10 -41 7 -42 18 -3 32 29 10 38 25 22 35 -14 9 -96 -51 -121 -88 -24 -37 -45 -49 -34 -19 5 12 2 15 -10 10 -27 -10 -20 6 16 42 19 17 40 31 48 29 8 -2 15 4 15 12 3 32 5 35 13 21 14 -21 32 -3 25 25 -6 23 -4 24 19 15 20 -8 28 -6 45 12 11 12 23 33 27 45 4 13 21 30 38 37 45 20 46 18 11 -13z m431 -122 c4 -6 -2 -30 -13 -53 -11 -23 -22 -49 -26 -57 -3 -8 -10 -22 -15 -30 -5 -8 -12 -22 -15 -30 -17 -45 -87 -140 -103 -140 -11 0 -13 -3 -5 -13 7 -8 6 -17 -3 -30 -14 -19 -32 -6 -20 13 15 24 -17 40 -78 40 -33 0 -58 3 -54 6 5 5 41 8 159 14 9 1 19 8 22 15 3 9 0 12 -10 8 -20 -8 -17 15 6 44 11 14 20 32 20 39 0 8 7 14 15 14 8 0 15 8 15 18 0 9 16 35 35 56 19 22 35 49 35 61 0 32 21 47 35 25z m2900 -137 c19 -27 44 -66 55 -88 26 -50 107 -177 185 -288 59 -84 182 -265 230 -340 14 -21 28 -50 31 -65 13 -52 51 -128 84 -165 32 -37 120 -224 120 -257 0 -34 -150 -244 -258 -361 -31 -35 -93 -89 -137 -122 -80 -59 -254 -149 -310 -160 -29 -6 -28 -6 5 9 199 89 312 170 427 306 34 40 74 87 89 103 14 17 37 48 51 70 15 22 41 58 60 81 18 23 33 47 33 54 0 36 -58 164 -106 236 -30 45 -64 108 -75 140 -19 55 -50 105 -236 380 -37 56 -80 121 -96 145 -97 154 -187 293 -196 302 -11 11 -11 12 -198 -143 -277 -229 -554 -402 -640 -399 -24 1 -20 4 27 26 30 13 89 49 130 79 41 30 113 80 160 111 47 31 99 68 115 83 17 15 46 37 65 51 19 13 60 44 91 69 31 25 80 63 109 85 29 22 70 55 92 73 22 17 44 32 49 32 5 0 25 -21 44 -47z m1887 -389 c9 -11 28 -39 43 -64 l26 -45 -6 35 c-6 29 -5 33 6 23 21 -20 32 -15 25 12 -4 14 -2 25 4 25 5 0 10 10 10 23 l0 22 20 -25 c12 -16 20 -41 20 -67 0 -31 5 -45 19 -53 30 -15 39 -12 43 14 3 24 4 24 48 -15 46 -41 48 -47 6 -28 -27 12 -76 5 -76 -11 0 -6 12 -29 26 -51 14 -23 37 -71 51 -108 13 -36 29 -70 34 -75 5 -6 9 -14 9 -20 0 -6 -5 -5 -11 1 -6 6 -17 9 -25 6 -8 -3 -16 6 -20 23 -8 32 -28 57 -38 47 -3 -3 -12 10 -20 29 -15 36 -41 55 -51 38 -8 -13 -8 -131 1 -164 4 -20 3 -27 -4 -22 -6 3 -13 0 -16 -6 -3 -7 -5 10 -3 37 1 36 -2 49 -11 47 -9 -1 -11 12 -7 55 l5 58 -17 -35 -17 -35 -5 32 -6 31 -45 -44 c-52 -52 -91 -62 -43 -11 26 27 30 38 26 70 -6 47 -23 49 -23 2 0 -27 -3 -33 -16 -28 -9 3 -20 0 -26 -8 -6 -10 -8 -3 -3 23 5 33 3 37 -17 40 -13 2 -28 15 -36 31 -8 17 -19 26 -27 23 -17 -6 -27 21 -31 82 -1 24 -5 57 -8 75 -3 18 -4 27 -1 22 3 -6 25 -9 50 -7 25 2 42 8 39 13 -3 5 2 6 10 3 11 -4 16 0 16 10 0 15 3 15 28 2 15 -8 35 -22 44 -32z m-5233 -4 c4 0 6 -35 4 -77 -3 -43 0 -96 5 -118 l10 -40 1 43 c1 26 5 41 11 37 6 -3 10 1 10 9 0 9 7 16 15 16 8 0 15 6 15 14 0 8 3 23 6 33 6 16 5 16 -10 -2 -16 -20 -17 -20 -14 5 2 16 9 25 21 25 9 0 26 14 38 30 l20 30 -7 -30 c-3 -16 -19 -68 -35 -115 -15 -47 -31 -114 -35 -150 -11 -113 -63 -286 -64 -214 -1 74 -12 159 -21 170 -6 8 -12 50 -14 94 -1 44 -5 83 -8 86 -3 3 1 27 8 52 7 26 17 67 21 92 4 25 9 37 12 28 2 -10 7 -18 11 -18z m-761 -146 c-5 -43 16 -46 31 -4 17 50 35 39 32 -20 l-1 -25 15 28 c18 31 39 36 31 7 -3 -11 -9 -29 -12 -40 -7 -26 0 -25 26 2 l20 22 0 -23 c0 -12 -5 -31 -10 -41 -8 -15 -6 -21 7 -29 26 -15 3 -47 -31 -44 -25 2 -26 0 -20 -32 6 -31 3 -36 -22 -46 -16 -6 -37 -18 -46 -26 -10 -9 -18 -14 -19 -12 -4 24 -12 145 -12 181 0 39 -3 46 -13 37 -11 -9 -16 -6 -23 13 -5 14 -21 32 -35 41 -26 17 -36 47 -16 47 6 0 10 -7 10 -15 0 -11 9 -14 35 -12 28 2 35 6 35 23 0 11 3 24 8 28 10 10 15 -19 10 -60z m3716 -125 c38 -30 49 -64 36 -105 -13 -39 -64 -74 -108 -74 -36 0 -79 34 -87 70 -8 34 29 89 75 112 45 23 52 22 84 -3z m2726 -14 c27 -44 38 -45 33 -2 -4 32 -4 32 56 -31 38 -41 65 -61 72 -56 9 5 6 10 -9 15 -22 8 -31 39 -13 39 12 0 98 -57 106 -71 4 -5 -1 -9 -9 -9 -33 0 -29 -44 5 -53 10 -3 19 -10 19 -15 0 -11 -38 -4 -57 11 -9 6 -13 6 -13 -1 0 -6 5 -12 12 -14 6 -2 8 -10 4 -17 -6 -9 -13 -6 -27 11 -17 19 -22 20 -30 8 -8 -12 -9 -10 -4 7 5 17 0 25 -25 38 -17 9 -40 30 -51 48 l-21 32 4 -32 c3 -18 1 -33 -4 -33 -4 0 -8 7 -8 15 0 8 -4 15 -10 15 -5 0 -10 9 -10 21 0 22 -43 91 -56 89 -5 -1 -10 3 -12 9 -9 26 28 8 48 -24z m-2132 -65 c67 -41 67 -122 0 -170 -54 -39 -89 -39 -134 3 -63 57 -44 135 41 173 41 18 55 17 93 -6z m2206 -85 c11 -8 27 -15 36 -15 9 0 17 -7 17 -16 0 -11 -7 -14 -25 -9 -15 4 -21 2 -17 -5 3 -5 14 -10 24 -10 10 0 32 -7 47 -15 16 -8 37 -15 47 -15 24 0 42 -19 50 -52 4 -15 18 -35 32 -44 14 -9 25 -25 25 -35 0 -26 19 -24 30 4 7 18 9 19 9 4 1 -10 -4 -27 -10 -39 -11 -20 -11 -20 -26 2 -8 12 -21 19 -29 16 -8 -3 -11 0 -7 10 4 10 -2 17 -15 20 -13 4 -18 12 -15 24 3 10 0 21 -6 24 -6 4 -11 16 -11 27 0 15 -7 19 -35 19 -19 0 -46 5 -59 12 -22 9 -29 8 -46 -7 -19 -18 -20 -17 -20 3 0 13 -6 22 -15 22 -21 0 -132 73 -118 77 6 2 30 -5 52 -16 51 -27 70 -27 47 -2 -13 15 -14 20 -4 24 19 8 21 8 42 -8z m-297 -155 c5 -19 131 -83 145 -74 16 10 8 22 -19 29 -14 3 -36 13 -47 22 -20 15 -20 15 -1 10 11 -3 38 -12 60 -22 26 -11 36 -12 28 -4 -7 7 -13 19 -13 26 0 18 46 7 79 -19 13 -10 32 -18 41 -18 22 0 37 -19 35 -46 -2 -13 3 -21 13 -20 8 0 17 -5 19 -12 4 -9 -2 -10 -23 -2 -15 6 -29 8 -32 6 -8 -8 -59 22 -65 39 -7 16 -42 21 -51 7 -3 -5 8 -24 24 -43 16 -19 29 -38 30 -42 0 -4 11 -25 25 -45 14 -20 25 -41 25 -46 0 -17 -32 18 -51 56 -24 46 -76 83 -96 66 -18 -15 -16 -28 5 -28 19 -1 68 -38 59 -46 -3 -3 -14 -1 -25 5 -12 6 -29 11 -39 11 -19 0 -49 -37 -38 -48 3 -4 10 0 14 7 5 8 11 9 15 3 3 -6 1 -12 -6 -14 -8 -3 -3 -15 15 -33 35 -39 26 -44 -22 -12 -22 15 -51 28 -64 31 -39 7 -77 35 -70 53 4 11 0 14 -18 11 -16 -2 -25 2 -27 15 -5 23 9 21 53 -8 20 -15 40 -24 43 -21 5 6 -60 82 -86 102 -8 6 -13 16 -11 23 3 8 16 5 43 -9 21 -10 42 -17 46 -15 4 3 19 -6 34 -20 23 -21 30 -23 51 -13 14 6 25 15 25 19 0 15 -114 79 -121 68 -4 -7 -17 -2 -37 16 -25 22 -29 31 -22 45 12 22 51 15 57 -10z m-887 -42 c-6 -23 -15 -56 -20 -73 -5 -16 -11 -47 -14 -68 -4 -21 -12 -50 -20 -65 -8 -15 -17 -49 -21 -76 -4 -27 -16 -57 -27 -68 -15 -15 -17 -23 -9 -31 19 -19 13 -45 -11 -49 -12 -2 -23 -8 -25 -15 -3 -7 3 -9 16 -6 12 3 21 1 21 -6 0 -6 -8 -11 -19 -11 -21 0 -31 -26 -31 -81 0 -47 -24 -105 -49 -118 -10 -6 -23 -28 -28 -48 -7 -29 -14 -38 -29 -36 -12 1 -23 -7 -29 -20 -7 -15 -19 -22 -38 -22 -22 -1 -26 2 -22 20 6 20 6 20 -10 0 -13 -17 -14 -20 0 -28 26 -14 16 -22 -27 -21 -39 1 -43 4 -46 28 -2 14 1 26 7 26 6 0 11 5 11 10 0 15 -16 12 -34 -5 -8 -8 -18 -15 -22 -15 -5 0 10 19 32 43 83 86 243 317 292 422 13 28 44 97 69 155 24 58 51 118 59 134 8 16 14 37 14 46 0 17 10 33 17 26 3 -2 -1 -24 -7 -48z m-1208 -409 c21 -35 38 -71 38 -79 0 -18 -115 -84 -130 -75 -20 12 -9 25 40 50 28 14 50 30 50 35 0 21 -33 22 -74 3 -40 -20 -66 -20 -66 -2 0 5 18 16 40 25 22 9 45 25 51 35 16 30 -16 35 -68 10 -42 -20 -68 -20 -61 0 4 12 120 68 133 65 5 -1 27 -32 47 -67z m-472 -171 c59 -56 71 -72 57 -75 -10 -3 -24 1 -32 7 -23 19 -106 3 -127 -23 -29 -36 -37 -6 -22 76 12 61 25 86 44 87 3 0 39 -32 80 -72z m2552 -223 c4 -36 -2 -42 -83 -74 -21 -9 -19 -10 19 -10 29 -1 42 -5 42 -15 0 -8 2 -23 5 -33 3 -11 1 -9 -6 5 -14 25 -50 29 -69 7 -7 -8 -22 -15 -33 -15 -11 0 -28 -7 -38 -16 -10 -9 -23 -13 -28 -9 -18 11 -12 22 19 35 17 7 30 19 30 26 0 18 -18 18 -54 -1 -39 -21 -57 -18 -23 3 15 9 27 20 27 24 0 5 11 8 24 8 14 0 28 5 31 10 3 6 15 10 26 10 16 0 18 5 13 28 -7 27 -7 27 14 8 21 -18 22 -18 28 0 20 54 50 59 56 9z m386 -324 c12 -11 22 -24 22 -31 0 -10 106 -120 116 -120 2 0 4 8 4 18 0 20 -48 76 -72 85 -17 6 -26 27 -12 27 13 0 74 -42 74 -50 0 -5 7 -16 17 -25 9 -10 16 -31 15 -51 -1 -19 2 -34 6 -34 11 0 42 -55 42 -75 0 -13 -10 -9 -40 19 -22 20 -49 36 -60 36 -27 0 -25 -5 13 -41 23 -22 27 -29 12 -24 -15 5 -11 -3 15 -31 25 -26 29 -35 15 -29 -11 4 -34 8 -51 9 -24 1 -46 17 -99 71 -47 49 -70 66 -73 55 -6 -18 186 -200 212 -200 15 0 16 -3 6 -15 -18 -22 -40 -6 -158 114 -115 117 -142 153 -135 182 7 24 23 14 23 -14 0 -22 44 -52 61 -41 16 9 10 22 -32 70 -24 28 -37 50 -30 52 7 2 -5 19 -26 37 -56 49 -34 52 32 6 36 -25 70 -41 88 -41 l29 0 -49 45 c-39 37 -42 43 -18 31 17 -9 40 -24 53 -35z m-6713 -83 c9 -28 9 -24 1 -78 -5 -37 -4 -41 6 -25 11 19 11 19 19 0 7 -18 8 -18 8 3 1 14 6 22 14 20 18 -7 20 -43 2 -58 -8 -7 -15 -28 -15 -46 0 -19 -4 -34 -8 -34 -5 0 -14 -12 -20 -26 -15 -32 -33 -22 -26 15 6 31 -21 157 -38 178 -7 9 -3 22 12 43 26 36 35 38 45 8z m90 -728 c9 -15 -6 -60 -21 -60 -10 0 -14 -12 -14 -40 0 -22 5 -40 11 -40 6 0 9 -17 7 -42 -3 -36 -8 -45 -33 -57 -16 -8 -48 -30 -70 -50 -32 -29 -40 -32 -43 -18 -2 9 8 32 23 51 14 19 28 47 29 63 2 15 4 31 5 35 0 4 15 21 31 38 17 17 28 35 25 41 -4 5 1 16 9 25 9 8 16 26 16 40 0 24 14 32 25 14z m3945 -197 c34 -26 79 -59 99 -73 49 -35 62 -73 33 -102 -19 -19 -24 -20 -46 -9 -13 7 -50 40 -82 73 -49 50 -55 59 -34 55 31 -7 52 4 41 21 -7 12 -26 19 -55 21 -5 1 -6 4 -3 7 3 4 -5 15 -18 26 -27 21 -34 44 -11 35 8 -3 42 -27 76 -54z"/>
<path d="M4046 6035 c-3 -8 -15 -15 -26 -15 -12 0 -20 -7 -20 -16 0 -13 -3 -14 -13 -5 -10 8 -17 7 -26 -2 -9 -9 -13 -7 -17 11 -7 24 -38 29 -64 11 -11 -8 -12 -12 -2 -16 29 -12 8 -22 -43 -20 -30 1 -55 5 -55 10 0 4 -9 7 -21 7 -12 0 -17 -4 -13 -11 4 -8 -3 -9 -24 -4 -17 3 -33 2 -36 -4 -4 -6 -14 -7 -23 -4 -11 4 -14 3 -9 -5 5 -8 -1 -12 -16 -12 -13 0 -28 -4 -34 -9 -11 -11 -129 -51 -148 -51 -8 0 -28 -11 -44 -25 -17 -14 -36 -25 -44 -25 -8 0 -25 -11 -38 -25 -13 -14 -34 -25 -47 -25 -16 0 -30 -11 -44 -34 -15 -25 -25 -33 -39 -29 -14 4 -20 0 -20 -11 0 -12 -6 -15 -24 -10 -21 5 -25 1 -31 -25 -4 -17 -12 -34 -19 -38 -7 -5 -16 -16 -19 -27 -4 -10 -13 -16 -21 -13 -10 4 -16 -2 -18 -16 -2 -13 -12 -23 -27 -27 -36 -8 -36 -26 -1 -39 17 -6 29 -15 25 -21 -11 -17 17 -11 32 8 13 16 14 16 8 -4 -7 -29 35 -66 77 -68 39 -1 108 -50 108 -76 0 -9 12 -34 26 -55 17 -26 24 -46 20 -61 -5 -17 -2 -24 8 -24 10 0 17 -15 22 -45 8 -58 34 -75 51 -34 14 33 38 38 46 9 3 -10 2 -19 -2 -18 -49 6 13 -44 85 -68 57 -19 70 -20 88 -9 28 17 104 32 196 39 96 7 205 38 297 82 70 35 159 101 149 112 -3 2 -12 -1 -21 -8 -18 -15 -45 2 -45 30 0 13 -11 20 -40 25 -50 8 -51 21 -4 29 19 4 38 14 41 22 6 17 73 85 73 75 0 -4 -6 -13 -12 -20 -11 -10 -10 -11 4 -6 9 4 19 13 22 20 3 8 13 11 24 8 11 -2 32 3 46 12 19 12 37 16 63 12 37 -6 179 20 169 31 -4 3 -25 9 -49 12 l-42 7 30 12 c17 6 39 15 50 20 11 5 34 14 50 19 53 16 23 27 -63 24 -46 -2 -89 1 -95 6 -7 5 -21 12 -32 15 -11 2 -2 5 21 6 22 0 49 7 60 15 18 14 18 15 -11 38 -16 12 -36 23 -45 23 -9 0 -14 9 -13 23 2 17 -6 25 -33 37 -47 19 -51 19 -57 -5 -3 -14 -14 -20 -31 -20 -33 0 -34 -18 -1 -26 30 -7 31 -15 6 -31 -22 -14 -81 1 -81 20 0 6 -11 0 -25 -13 -18 -17 -28 -21 -36 -13 -6 6 -28 9 -50 6 -35 -5 -39 -3 -39 15 0 19 -4 21 -30 15 -22 -4 -39 1 -65 18 -40 27 -44 39 -14 39 16 0 19 4 14 20 -5 15 0 21 22 26 40 10 56 24 43 39 -16 20 14 26 39 9 19 -14 21 -13 21 0 0 21 29 20 47 -1 12 -16 13 -14 7 17 -3 19 -13 39 -20 43 -8 5 -12 13 -8 18 8 14 -26 38 -53 39 -28 0 -32 36 -5 43 11 3 8 5 -9 6 -16 1 -29 -5 -33 -14z"/>
<path d="M4426 3059 c-48 -38 -22 -119 39 -119 27 0 75 40 75 62 0 7 -9 28 -20 46 -23 38 -55 42 -94 11z"/>
<path d="M3687 8228 c8 -44 35 -73 82 -87 21 -6 44 -18 51 -26 16 -19 30 -19 45 1 11 15 16 14 58 -10 29 -18 44 -32 41 -41 -10 -26 66 -81 102 -74 26 5 36 -1 25 -14 -8 -11 -6 -18 8 -32 31 -27 41 -15 26 29 -17 50 -10 62 23 40 23 -15 26 -15 37 -1 16 22 35 3 35 -35 0 -39 28 -50 108 -44 44 3 77 0 99 -9 32 -14 48 -30 18 -19 -10 4 -15 0 -15 -11 0 -9 9 -19 21 -22 20 -6 20 -6 -2 -29 l-23 -24 49 7 c58 7 55 -7 -4 -27 -42 -14 -54 -30 -23 -30 9 0 26 -7 36 -15 15 -11 16 -17 7 -28 -9 -12 -6 -18 13 -31 14 -9 28 -16 31 -16 4 0 15 -9 66 -55 9 -8 21 -15 27 -15 7 0 12 -5 12 -11 0 -7 8 -18 18 -25 16 -12 16 -13 -2 -20 -14 -5 -24 -1 -37 14 -21 27 -89 32 -89 7 0 -8 7 -15 15 -15 8 0 15 5 15 11 0 8 5 8 15 -1 8 -7 15 -19 15 -26 0 -10 14 -14 49 -14 l49 0 -8 34 c-8 38 -5 47 14 40 14 -5 9 75 -5 90 -12 14 -11 56 1 56 6 0 10 -8 8 -17 -2 -11 6 -19 21 -23 25 -6 42 -30 21 -30 -8 0 -11 -11 -8 -30 3 -17 1 -33 -4 -36 -16 -10 -8 -22 12 -17 12 3 22 -1 26 -11 3 -9 17 -16 29 -16 66 0 67 -29 2 -31 l-42 -1 32 -9 c26 -8 43 -5 83 12 27 12 51 27 51 33 3 27 8 54 17 101 7 35 7 59 -2 85 l-11 35 -77 -1 -77 -1 2 43 c2 43 3 44 29 38 33 -7 89 23 81 43 -6 17 11 17 24 1 6 -7 16 -34 23 -60 12 -47 42 -78 75 -78 8 0 15 -6 15 -13 0 -28 154 -81 205 -71 23 4 35 2 35 -5 0 -6 9 -11 20 -11 11 0 20 -3 20 -7 -1 -11 -69 -53 -86 -53 -20 0 -18 -13 6 -33 11 -9 20 -29 20 -43 0 -19 4 -25 15 -20 26 10 45 -5 45 -35 0 -31 9 -36 27 -18 15 15 36 1 28 -19 -4 -11 10 -31 43 -62 26 -25 58 -58 70 -75 l21 -30 1 30 c0 23 -10 41 -41 70 l-40 40 28 6 c15 4 41 7 57 8 29 1 29 1 11 -19 -22 -25 -12 -39 16 -22 11 7 24 10 29 7 4 -3 10 1 13 7 3 8 9 1 15 -14 10 -25 41 -50 59 -47 28 5 63 -3 63 -13 0 -15 45 -38 72 -38 10 0 18 -5 18 -11 0 -5 4 -8 9 -4 15 8 34 -33 27 -59 -4 -18 -1 -22 22 -21 23 0 27 -5 30 -32 2 -17 9 -36 16 -42 20 -17 35 30 40 126 4 92 11 110 32 92 8 -6 29 -15 47 -18 25 -5 33 -13 37 -36 9 -50 41 -40 55 18 6 22 4 27 -12 27 -27 0 -63 28 -63 50 0 24 29 40 74 40 43 0 80 -41 73 -80 -6 -31 6 -69 17 -52 4 7 12 9 18 6 6 -4 29 -7 52 -8 57 -1 59 -25 7 -86 -23 -27 -41 -51 -41 -53 0 -13 130 -13 173 0 37 11 56 12 79 4 23 -8 35 -8 45 0 8 7 33 10 66 6 64 -6 117 13 117 42 0 14 -9 23 -25 27 -26 6 -35 24 -12 24 18 -1 47 -25 47 -40 0 -14 104 -116 127 -124 7 -3 15 -1 18 4 4 6 10 10 16 10 5 0 4 -8 -2 -18 -9 -14 -8 -25 4 -48 21 -41 65 -213 63 -249 -1 -24 3 -31 22 -33 34 -5 54 -44 58 -114 6 -90 20 -127 52 -134 44 -11 45 -15 16 -45 -31 -32 -49 -37 -58 -14 -9 25 -53 40 -71 25 -23 -19 -18 -33 11 -26 25 7 25 5 22 -31 -3 -33 0 -38 19 -41 12 -2 26 -9 32 -16 9 -11 6 -12 -16 -8 -20 4 -31 -1 -47 -21 l-21 -26 -42 25 c-33 19 -45 34 -53 64 -6 22 -14 42 -19 45 -11 6 -2 85 10 101 5 6 20 9 34 6 25 -4 35 11 15 23 -15 9 -12 45 4 45 7 0 25 -10 40 -21 40 -31 44 -15 12 42 -17 31 -30 72 -33 107 -7 65 -36 118 -86 156 -39 30 -57 33 -57 10 0 -9 -9 -18 -21 -21 -16 -5 -19 -11 -14 -32 13 -49 26 -143 21 -148 -3 -3 -30 19 -61 48 l-56 53 -23 -29 -23 -28 -13 29 c-12 26 -17 29 -59 27 -25 -1 -70 -5 -99 -9 -45 -6 -53 -10 -49 -25 7 -26 -14 -39 -61 -37 -36 1 -40 4 -38 26 2 13 9 27 15 32 18 11 -30 85 -66 102 -15 7 -36 30 -45 50 -10 20 -27 39 -38 43 -11 3 -20 10 -20 14 0 5 -11 19 -25 33 -25 25 -25 25 -5 43 18 17 28 55 14 55 -3 0 -17 -9 -31 -20 -14 -11 -34 -20 -44 -20 -11 0 -19 -7 -19 -17 0 -25 -64 -66 -107 -68 -54 -4 -73 -55 -20 -55 12 0 28 -4 36 -9 17 -11 41 -76 41 -111 0 -44 19 -53 54 -27 53 40 61 42 40 11 -39 -56 -39 -57 -5 -49 20 4 31 3 31 -4 0 -6 -5 -11 -12 -11 -6 0 -9 -3 -6 -6 4 -3 15 -1 25 4 23 13 33 7 56 -35 18 -32 18 -33 -2 -33 -14 0 -21 -6 -21 -20 0 -11 5 -20 10 -20 6 0 10 4 10 9 0 5 12 8 28 6 15 -2 37 -4 50 -4 12 -1 22 -7 22 -16 0 -8 9 -19 19 -25 17 -8 18 -14 9 -44 -10 -31 -13 -33 -39 -26 -16 5 -34 12 -41 17 -33 21 -78 30 -91 19 -24 -20 -37 -63 -23 -75 7 -6 16 -8 19 -4 4 3 13 0 22 -7 14 -11 14 -14 -1 -24 -19 -14 -5 -29 37 -40 31 -7 108 -66 108 -82 1 -18 33 -26 43 -12 4 7 13 32 19 56 13 47 26 54 35 17 3 -14 10 -25 15 -25 5 0 9 -7 9 -15 0 -8 8 -15 18 -15 9 0 54 -13 100 -29 46 -16 85 -24 88 -19 9 14 54 -32 54 -54 0 -15 5 -18 20 -13 12 4 26 0 37 -10 15 -16 17 -15 28 4 6 12 14 18 19 14 4 -4 4 0 0 10 -7 19 -24 23 -24 5 0 -6 -3 -8 -7 -4 -5 4 0 14 11 21 12 9 16 21 12 32 -3 10 5 5 19 -12 14 -16 25 -35 25 -41 0 -6 7 -17 15 -24 9 -7 14 -20 12 -29 -2 -9 2 -28 10 -43 7 -15 9 -29 5 -32 -14 -8 -1 -68 21 -101 11 -16 32 -42 45 -57 41 -44 21 -41 -39 7 -51 40 -58 43 -93 35 -33 -7 -38 -5 -51 16 -8 13 -22 35 -30 49 -8 13 -15 32 -15 40 0 12 -6 15 -20 10 -14 -5 -20 -2 -20 10 0 24 -53 73 -102 94 -24 10 -72 21 -108 25 -59 5 -63 4 -46 -9 11 -8 30 -15 43 -15 13 0 23 -4 23 -10 0 -5 -7 -10 -15 -10 -19 0 -20 -16 -1 -23 8 -3 14 -14 13 -25 -2 -27 30 -89 54 -106 13 -8 22 -27 23 -44 2 -38 54 -85 79 -71 24 14 33 5 62 -51 26 -52 45 -71 45 -46 0 9 6 16 14 16 25 0 1 68 -41 118 -55 66 -64 87 -11 28 105 -121 104 -120 83 -50 -6 19 -4 21 22 17 43 -8 80 -50 108 -124 15 -37 32 -73 40 -79 15 -13 27 -50 15 -50 -4 0 -20 17 -36 38 -36 48 -60 72 -75 72 -11 0 -10 -6 8 -62 3 -10 0 -18 -6 -18 -22 0 -10 -38 19 -62 26 -21 31 -34 37 -88 3 -35 14 -84 24 -109 15 -42 20 -46 55 -51 26 -3 39 -10 39 -20 0 -11 9 -14 35 -12 30 3 39 -2 58 -27 12 -17 22 -34 22 -38 0 -4 8 -34 17 -65 17 -54 20 -57 60 -67 44 -12 103 -54 103 -76 0 -9 -10 -8 -37 6 -21 10 -45 19 -55 19 -10 0 -18 5 -18 11 0 14 -30 38 -47 39 -18 0 -16 -15 3 -35 10 -9 13 -22 9 -33 -6 -14 -8 -15 -13 -2 -2 8 -13 23 -22 32 -17 16 -18 15 -22 -15 -3 -18 -8 -40 -13 -49 -6 -14 -2 -18 16 -18 22 0 22 -1 7 -16 -22 -22 -113 -25 -113 -4 0 9 11 16 28 18 44 5 29 33 -25 46 -53 12 -158 143 -158 197 0 6 -6 23 -14 37 -8 15 -17 36 -21 47 -6 18 -8 17 -20 -10 l-13 -30 -7 33 c-11 48 -28 40 -21 -10 14 -111 26 -149 55 -182 42 -47 57 -60 77 -72 10 -7 17 -14 14 -17 -6 -6 -93 33 -102 47 -5 7 -8 7 -8 -1 0 -15 56 -74 63 -66 3 3 16 -2 29 -11 12 -9 19 -16 15 -16 -11 0 39 -84 54 -91 54 -26 69 -31 80 -27 8 3 20 -1 27 -8 7 -8 27 -11 49 -8 44 5 49 9 35 26 -8 10 -5 13 14 13 15 0 24 -6 24 -16 0 -17 25 -29 102 -49 59 -15 82 -2 73 40 -5 25 -4 26 30 22 21 -3 35 0 35 7 0 6 5 11 12 11 7 0 22 12 34 27 18 23 24 25 36 15 9 -7 13 -22 11 -35 -3 -15 5 -31 25 -50 28 -27 31 -28 92 -18 34 6 65 13 68 16 14 13 -16 20 -81 18 -61 -2 -69 0 -54 11 9 7 17 19 17 26 0 8 6 10 18 5 9 -4 28 -7 42 -6 13 0 39 -4 58 -10 43 -14 57 -2 41 35 -11 23 -10 29 8 48 l21 21 -21 29 c-28 38 -17 47 74 60 41 7 86 20 101 30 34 23 41 23 28 -1 -17 -33 -13 -41 18 -30 19 7 38 6 56 -1 41 -15 51 -13 66 18 8 15 26 37 40 48 14 12 25 30 25 40 0 14 9 20 35 22 30 2 33 0 19 -10 -37 -30 -27 -131 14 -144 9 -3 17 -14 17 -25 0 -10 7 -19 15 -19 13 0 15 45 15 348 0 325 -1 350 -18 365 -24 22 -33 21 -86 -4 -43 -20 -63 -50 -101 -154 -7 -19 -7 -19 -16 4 -14 35 -15 169 -3 222 6 26 21 60 32 77 13 17 22 45 22 65 0 40 -30 116 -53 135 -21 18 -10 42 19 42 18 0 25 -7 30 -27 9 -44 55 -146 73 -165 16 -16 36 -21 79 -19 l22 1 0 451 c-1 275 -5 459 -11 470 -7 14 -16 17 -40 12 -25 -5 -31 -2 -36 16 -5 20 -10 22 -47 16 -67 -10 -76 -15 -76 -38 0 -28 68 -127 87 -127 7 0 13 -6 12 -12 -1 -7 3 -26 9 -41 7 -16 12 -38 12 -50 0 -19 -4 -18 -37 15 -21 20 -57 48 -80 62 -24 14 -43 33 -43 41 0 8 -14 22 -30 30 -27 14 -30 21 -28 53 3 31 -1 38 -25 50 -27 13 -28 16 -22 66 8 59 0 70 -69 97 -28 11 -42 23 -44 39 -3 19 0 21 30 19 18 -2 50 -16 71 -31 40 -28 124 -48 136 -31 3 5 41 17 83 27 61 14 84 16 109 7 18 -6 34 -11 35 -11 2 0 4 116 4 258 l0 258 -29 11 c-24 9 -35 7 -60 -8 -17 -10 -31 -23 -31 -28 0 -5 -9 -7 -20 -4 -28 7 -25 -12 9 -55 34 -43 54 -95 29 -74 -9 7 -21 26 -28 42 -12 29 -30 41 -30 20 0 -5 5 -10 12 -10 6 0 4 -8 -6 -19 -12 -13 -15 -27 -10 -47 7 -28 7 -28 -42 13 -44 36 -148 82 -160 70 -2 -2 6 -27 19 -55 29 -62 25 -125 -8 -130 -69 -10 -67 -8 -60 -67 4 -30 5 -55 1 -55 -3 0 -18 19 -33 43 -15 23 -57 76 -93 119 -36 42 -73 88 -83 103 -11 14 -30 31 -43 37 -22 10 -29 7 -58 -21 -18 -18 -39 -31 -46 -29 -23 6 -40 -66 -30 -129 5 -31 8 -58 7 -59 -6 -6 -111 123 -122 151 -14 34 -25 128 -29 255 -2 69 -8 95 -29 137 -15 28 -32 55 -39 59 -14 9 -156 6 -170 -2 -5 -3 -6 -20 -3 -37 3 -18 7 -70 9 -117 2 -47 7 -93 11 -102 11 -26 -6 -22 -54 12 -47 35 -96 128 -87 170 2 14 0 44 -6 68 -13 51 -37 56 -70 12 -12 -16 -28 -30 -35 -30 -16 0 -17 26 -2 36 6 3 9 19 6 34 -3 15 -1 33 6 40 10 10 6 11 -18 6 -16 -4 -55 -10 -87 -13 l-56 -5 0 36 c0 33 2 36 30 36 24 0 28 3 23 19 -4 13 0 20 15 24 11 3 20 12 20 21 0 27 64 19 133 -15 34 -17 69 -37 77 -44 8 -8 47 -25 85 -40 78 -30 128 -42 107 -27 -8 5 -12 18 -10 28 3 15 11 18 40 16 26 -3 42 2 56 16 11 11 23 17 27 14 4 -4 -2 9 -14 28 -25 42 -27 78 -4 95 9 7 14 19 10 29 -6 15 -62 16 -657 16 -639 0 -650 0 -650 -20 0 -10 -10 -25 -22 -31 -18 -10 -24 -8 -35 7 -7 10 -13 24 -13 31 0 10 -27 13 -115 13 l-115 0 0 -59 c0 -65 -9 -80 -35 -55 -13 13 -15 27 -10 65 l7 49 -100 0 -100 0 -21 -50 c-26 -60 -48 -59 -53 3 l-3 42 -120 2 c-85 1 -114 -1 -100 -8 11 -5 30 -26 43 -46 13 -19 20 -33 15 -31 -4 2 -37 18 -73 36 -73 36 -127 41 -156 14 -10 -10 -33 -24 -51 -33 l-31 -15 33 -32 c20 -20 36 -29 40 -23 3 6 3 16 0 21 -3 6 -1 10 4 10 6 0 11 -7 11 -15 0 -8 4 -15 9 -15 5 0 11 -8 15 -17 3 -10 9 -24 12 -32 5 -10 1 -11 -15 -6 l-22 7 21 -34 c25 -41 25 -58 2 -58 -23 0 -45 23 -75 81 -26 50 -104 109 -144 109 -14 0 -38 -11 -55 -25 -17 -14 -42 -25 -59 -25 -26 0 -29 -3 -24 -25 3 -14 7 -36 10 -50 3 -13 10 -37 17 -52 18 -44 17 -63 -3 -63 -10 0 -29 15 -41 34 -13 18 -44 65 -69 102 -59 90 -70 98 -115 89 -40 -7 -74 14 -74 47 0 22 -1 22 -45 1 -40 -19 -45 -41 -14 -69 17 -16 22 -16 31 -4 8 12 8 11 3 -5 -3 -11 -11 -42 -16 -68 -10 -57 -17 -70 -30 -61 -6 3 -17 -2 -24 -12 -13 -18 -14 -18 -15 -1 0 9 4 17 9 17 5 0 10 21 11 48 3 110 1 115 -39 156 -36 36 -41 38 -80 31 -22 -4 -41 -12 -41 -18 -1 -17 -93 -117 -108 -117 -15 0 -16 26 -2 35 6 4 -6 26 -27 53 l-38 47 33 -28 c49 -39 52 -38 66 26 l6 27 -185 0 -184 0 6 -32z m1937 -284 c18 -7 23 -64 6 -64 -5 0 -10 -6 -10 -14 0 -16 50 -32 59 -19 12 16 96 11 133 -8 20 -10 46 -19 56 -19 45 0 134 -55 217 -131 39 -37 28 -45 -19 -13 -69 47 -157 86 -181 80 -15 -4 -25 -1 -29 10 -5 13 -10 12 -37 -7 l-31 -21 43 -40 c25 -23 48 -37 57 -33 11 4 13 -1 10 -20 -4 -16 1 -30 14 -42 19 -17 30 -18 166 -23 16 0 15 -51 -2 -75 -11 -15 -22 -17 -63 -12 l-51 6 4 -47 c3 -52 -12 -71 -60 -72 -24 0 -27 2 -16 15 7 8 18 15 25 15 48 0 -1 153 -53 167 -12 3 -27 14 -33 24 -14 26 -139 109 -164 109 -12 0 -40 -14 -63 -31 -36 -26 -40 -33 -31 -50 12 -24 -19 -74 -54 -84 -64 -19 -60 -19 -43 8 26 38 31 115 12 171 -9 27 -13 53 -9 57 4 4 26 9 48 10 22 1 46 7 52 12 7 5 22 7 33 4 11 -3 20 -2 20 2 0 16 -26 31 -56 31 -37 0 -66 26 -40 36 9 3 16 12 16 19 0 7 7 18 15 25 8 7 12 16 9 21 -6 10 26 12 50 3z m816 -132 c0 -18 74 -93 104 -106 17 -7 40 -24 51 -36 11 -12 49 -51 85 -85 l64 -63 -25 -12 c-20 -9 -26 -19 -25 -41 1 -19 6 -29 16 -29 8 0 21 -9 28 -20 11 -18 10 -20 -11 -20 -31 0 -77 -54 -77 -91 0 -21 -4 -27 -15 -23 -9 4 -15 19 -15 37 0 17 -5 59 -11 94 -9 51 -18 71 -43 96 -18 18 -36 40 -39 50 -4 9 -12 17 -19 17 -20 0 -58 -51 -58 -77 0 -34 -29 -29 -36 6 -11 54 -36 66 -130 65 -80 -1 -107 7 -64 21 22 7 28 35 7 35 -47 0 -97 62 -97 119 0 18 37 41 66 41 28 0 113 -50 119 -70 6 -19 17 -25 39 -21 5 1 16 -5 26 -14 9 -8 19 -12 22 -9 4 3 4 -12 1 -34 -4 -32 -2 -40 13 -46 12 -5 23 -1 30 9 14 19 7 55 -12 62 -22 8 -16 33 11 43 29 11 31 17 9 41 -16 18 -18 18 -43 0 -39 -28 -71 -36 -71 -17 0 8 5 18 10 21 6 3 10 18 10 32 0 17 4 23 13 20 8 -3 20 -1 28 4 18 11 39 12 39 1z m664 -498 c20 -8 21 -40 1 -48 -8 -3 -15 -10 -15 -16 0 -5 7 -10 15 -10 8 0 15 4 15 9 0 5 9 7 20 4 11 -3 20 -1 20 4 0 14 85 -1 107 -18 9 -8 30 -25 46 -39 16 -14 33 -25 37 -25 5 0 15 -6 22 -12 6 -7 18 -13 25 -13 20 0 51 -35 55 -62 2 -15 9 -22 21 -20 11 2 17 -4 17 -18 0 -25 -8 -25 -33 -2 -19 17 -19 16 -13 -24 5 -30 3 -45 -7 -56 -8 -7 -17 -24 -21 -35 -4 -12 -15 -24 -24 -27 -9 -3 -25 -20 -34 -37 -25 -44 -38 -28 -38 49 0 140 -51 312 -95 321 -12 2 -34 -14 -66 -48 -25 -27 -49 -48 -52 -44 -4 3 -12 -6 -18 -21 -7 -14 -18 -26 -26 -26 -9 0 -11 -8 -7 -26 7 -25 5 -27 -22 -20 -61 15 -114 92 -114 166 0 33 5 41 34 59 18 12 41 21 50 21 9 0 16 5 16 10 0 11 59 14 84 4z m497 -171 c42 -22 52 -24 60 -12 8 12 11 11 21 -5 10 -18 12 -18 24 -2 11 16 13 16 20 -6 10 -31 6 -89 -8 -105 -6 -7 -10 -32 -10 -56 2 -70 -14 -79 -37 -23 -12 26 -21 53 -21 60 0 25 -62 136 -87 156 -35 27 -23 25 38 -7z m-321 -650 c19 1 100 -50 100 -63 0 -6 -14 -10 -31 -10 -24 0 -30 -4 -27 -17 2 -13 16 -20 46 -24 52 -7 63 5 55 55 -6 35 -4 38 15 32 16 -5 23 -1 34 21 7 15 17 27 21 26 4 -2 18 -3 32 -3 16 0 25 -6 25 -15 0 -9 16 -49 35 -89 50 -106 46 -116 -21 -62 -64 52 -79 57 -70 21 4 -14 4 -25 2 -25 -3 0 -10 18 -16 40 -19 70 -36 45 -30 -43 1 -21 -4 -30 -19 -34 -11 -3 -18 -10 -15 -15 9 -14 -17 -29 -38 -22 -22 7 -23 -13 -3 -40 11 -14 12 -23 4 -33 -14 -16 -17 -89 -5 -122 12 -35 -14 -22 -39 19 -11 19 -39 52 -62 74 -44 43 -73 98 -73 140 0 14 -4 28 -10 31 -5 3 -9 20 -9 38 1 18 -1 51 -5 75 -3 24 -7 46 -7 50 -3 19 5 20 49 7 26 -7 54 -13 62 -12z m176 -465 c16 -24 37 -61 47 -83 10 -22 25 -47 33 -56 13 -15 17 -15 52 1 32 15 51 16 141 9 67 -5 110 -5 122 2 20 10 46 1 67 -24 9 -11 7 -16 -13 -25 -34 -16 -31 -38 9 -76 38 -34 130 -156 123 -162 -2 -2 -27 21 -54 51 -49 53 -82 72 -69 39 4 -11 1 -14 -12 -12 -10 2 -22 20 -30 43 -19 57 -31 69 -51 51 -15 -13 -91 -38 -108 -35 -27 5 -30 -3 -10 -24 12 -13 25 -22 29 -20 3 2 15 -8 26 -22 11 -13 22 -22 25 -19 3 3 28 -6 56 -20 28 -15 51 -22 51 -16 0 5 5 10 10 10 6 0 10 -9 10 -19 0 -11 -4 -23 -10 -26 -5 -3 -10 -23 -10 -43 0 -53 -10 -82 -27 -82 -10 0 -13 -6 -9 -17 4 -9 10 -36 13 -60 7 -55 -10 -57 -36 -5 -11 21 -39 63 -64 93 -24 30 -48 65 -52 79 -4 14 -15 34 -25 45 -10 11 -23 37 -28 57 -6 20 -22 52 -36 71 -14 19 -26 39 -26 45 0 15 0 15 -44 -3 -20 -8 -50 -16 -67 -18 -27 -2 -33 -8 -51 -57 -11 -30 -19 -72 -19 -92 2 -47 -17 -50 -66 -12 -40 30 -73 99 -73 151 0 32 -2 35 -24 29 -29 -7 -49 14 -39 40 13 35 47 75 60 70 7 -3 15 -1 18 5 4 5 10 7 15 4 5 -3 13 2 18 12 9 15 14 12 45 -20 19 -20 41 -37 50 -37 8 0 18 -8 22 -17 6 -17 7 -17 20 1 8 10 18 15 24 12 24 -15 18 15 -11 55 -18 24 -40 65 -50 92 -33 86 -19 104 28 35z"/>
<path d="M7350 8240 c6 -11 15 -20 20 -20 21 0 32 -41 19 -71 -10 -26 -9 -32 9 -52 12 -12 24 -42 28 -66 6 -40 5 -44 -11 -37 -29 11 -58 -3 -52 -25 3 -10 1 -19 -5 -19 -5 0 5 -20 23 -44 20 -29 33 -61 36 -90 5 -39 2 -48 -18 -65 -13 -11 -22 -21 -19 -23 3 -1 31 -16 62 -32 49 -26 68 -30 132 -29 41 1 79 4 84 7 5 3 7 17 5 30 -4 18 -10 23 -22 19 -14 -6 -14 -4 2 14 9 11 17 25 17 31 0 6 9 16 20 22 12 6 18 16 13 23 -4 6 -10 59 -14 117 -5 77 -13 118 -29 153 -12 26 -26 50 -31 53 -5 3 -9 10 -9 15 0 5 10 0 22 -11 12 -11 38 -25 58 -31 29 -9 40 -21 63 -68 31 -61 29 -77 -10 -124 -13 -16 -23 -37 -23 -48 0 -18 2 -19 30 -4 29 15 65 14 123 -2 17 -4 17 -6 2 -23 -15 -16 -15 -18 0 -24 24 -9 60 -7 71 3 9 10 86 -12 130 -37 12 -6 23 -9 26 -7 9 9 83 -34 112 -64 17 -17 33 -31 38 -31 4 0 8 38 8 85 0 66 -3 85 -14 85 -9 0 -12 -7 -9 -19 3 -10 0 -22 -6 -25 -17 -11 -51 13 -51 35 0 11 -21 40 -46 65 -61 62 -43 77 23 19 32 -29 61 -45 77 -45 l26 0 0 163 0 163 -28 27 -28 27 -228 0 c-216 0 -229 -1 -258 -21 l-29 -21 -6 21 c-5 20 -11 21 -175 21 -166 0 -169 0 -158 -20z"/>
<path d="M5029 7656 c-52 -39 -81 -92 -58 -107 8 -5 30 -8 49 -7 19 1 56 -2 81 -6 31 -5 49 -4 54 3 3 6 11 9 16 6 5 -4 9 8 9 25 0 25 -4 31 -17 28 -12 -2 -17 -12 -16 -25 2 -19 0 -21 -29 -13 -36 11 -48 20 -25 20 9 0 28 10 42 23 l27 23 -30 32 c-17 18 -36 32 -44 32 -7 0 -34 -16 -59 -34z"/>
<path d="M7820 7615 c-7 -8 -30 -20 -51 -27 -35 -10 -55 -38 -28 -38 5 0 17 -16 25 -35 12 -29 20 -35 44 -35 16 0 32 -4 35 -10 23 -38 43 45 21 88 -9 17 -11 34 -6 42 18 29 -17 42 -40 15z"/>
<path d="M5018 7333 c-16 -2 -28 -9 -28 -14 0 -5 12 -15 28 -21 15 -7 40 -23 55 -35 16 -13 37 -23 48 -23 10 0 19 -4 19 -8 0 -5 12 -15 26 -22 22 -12 27 -12 34 0 6 9 33 16 79 18 47 3 71 9 75 18 13 34 -109 51 -143 20 -26 -24 -50 -21 -44 5 4 14 0 25 -11 31 -9 5 -16 16 -16 23 0 15 -54 18 -122 8z"/>
<path d="M6665 7097 c-11 -10 -35 -26 -52 -33 -43 -19 -42 -45 1 -78 19 -14 38 -35 41 -47 l7 -21 22 21 c14 13 29 18 44 14 26 -6 25 -9 11 56 -6 27 -17 52 -25 55 -8 3 -14 14 -14 25 0 28 -12 31 -35 8z"/>
<path d="M4305 7100 c-4 -6 -16 -8 -26 -5 -18 6 -19 5 -7 -14 7 -12 20 -22 28 -22 8 -1 20 -2 25 -4 6 -1 17 -3 25 -4 10 -1 7 -6 -8 -12 -33 -13 -18 -29 21 -22 29 4 37 1 58 -27 48 -63 71 -78 142 -94 39 -9 72 -14 75 -11 3 3 0 5 -6 5 -6 0 -30 20 -53 45 -23 25 -48 45 -54 45 -7 0 -18 7 -25 15 -10 12 -10 15 4 15 9 0 16 8 16 18 1 12 15 2 45 -32 47 -52 69 -58 39 -9 -21 34 -75 93 -85 93 -4 0 -10 -8 -14 -17 -3 -10 -12 -26 -20 -37 -13 -18 -16 -17 -62 16 -67 49 -110 70 -118 58z"/>
<path d="M6340 5954 c0 -9 9 -18 20 -21 18 -5 30 -25 13 -22 -33 5 -53 -3 -53 -22 0 -13 -4 -18 -12 -13 -7 4 -8 3 -4 -4 8 -14 46 2 46 18 0 6 11 10 24 10 14 0 28 5 31 10 3 6 10 10 16 10 12 0 12 -37 -1 -45 -5 -3 -10 -16 -11 -28 -1 -21 -1 -21 -8 2 -11 39 -31 38 -31 -1 0 -27 7 -40 35 -62 19 -16 35 -36 35 -46 0 -23 29 -35 36 -15 4 8 4 31 2 50 -4 33 -3 34 15 17 14 -12 17 -25 14 -49 -6 -32 5 -44 18 -23 10 17 26 0 20 -21 -4 -11 -2 -19 4 -19 14 0 14 77 1 85 -5 3 -10 15 -10 25 0 13 -5 17 -15 14 -10 -4 -15 0 -15 12 0 9 -8 26 -17 36 -10 11 -22 34 -28 51 -5 18 -14 30 -19 27 -5 -3 -12 5 -17 18 -7 18 -16 22 -49 22 -30 0 -40 -4 -40 -16z"/>
<path d="M6603 5880 c-6 -24 -33 -27 -33 -3 0 13 -4 11 -20 -7 -21 -24 -27 -46 -10 -35 6 3 11 -2 12 -12 0 -10 2 -22 3 -28 2 -5 4 -14 5 -20 1 -5 8 4 15 20 12 28 13 25 12 -45 -2 -75 15 -116 21 -52 3 31 5 32 17 15 23 -32 30 -4 11 48 -19 54 -15 80 5 35 7 -15 17 -25 23 -23 21 7 17 37 -8 64 -14 15 -26 36 -26 45 0 25 -21 23 -27 -2z"/>
<path d="M6190 5462 c0 -10 -9 -27 -19 -36 -19 -17 -21 -17 -57 8 -37 25 -38 25 -51 6 -8 -12 -14 -47 -14 -87 0 -107 -7 -143 -27 -135 -15 5 -15 4 1 -21 9 -14 17 -33 17 -41 0 -14 7 -30 53 -121 29 -58 68 -118 73 -113 9 10 -21 75 -52 112 -26 30 -32 44 -27 67 3 15 -2 60 -12 98 -16 67 -14 98 6 86 5 -4 9 -22 9 -41 0 -24 5 -34 15 -34 9 0 15 -10 15 -26 0 -14 4 -23 8 -20 10 6 6 81 -5 101 -5 8 -6 38 -3 67 4 46 8 53 29 56 13 2 28 -1 34 -7 6 -6 18 -11 27 -11 8 0 24 -20 36 -46 12 -25 24 -42 27 -37 3 5 -1 22 -9 37 -7 16 -14 34 -14 41 0 18 -39 103 -50 110 -6 3 -10 -2 -10 -13z"/>
<path d="M7932 5006 c-23 -12 -49 -31 -56 -42 -14 -17 -11 -22 27 -57 40 -36 40 -37 10 -22 -34 16 -103 21 -103 7 0 -12 30 -37 68 -56 37 -19 43 -39 10 -31 -13 2 -42 7 -65 9 -23 2 -59 9 -80 16 -97 30 -100 30 -133 16 -43 -18 -89 -6 -153 40 -61 44 -71 44 -63 -4 l6 -38 -37 4 c-32 4 -35 2 -29 -14 13 -34 11 -38 -19 -44 l-30 -6 40 -25 c22 -13 44 -23 49 -21 10 3 76 -58 76 -71 0 -5 -14 3 -31 17 -17 14 -40 26 -52 26 -12 0 -38 9 -57 20 -19 11 -46 26 -60 33 -13 6 -35 22 -49 35 -13 12 -30 22 -38 22 -11 0 -11 -5 2 -29 8 -17 19 -33 25 -36 6 -4 8 -11 4 -16 -4 -6 -14 -3 -25 7 -27 24 -35 10 -12 -20 13 -16 23 -22 30 -15 6 6 25 -9 53 -43 43 -52 78 -83 92 -83 4 0 13 -6 20 -12 6 -7 17 -13 24 -13 6 0 14 -7 18 -15 7 -20 -11 -19 -31 0 -8 9 -17 15 -18 13 -2 -2 -1 -26 2 -54 4 -42 10 -53 37 -72 54 -37 186 -171 186 -188 0 -15 -2 -15 -21 2 -12 10 -28 32 -37 49 -19 37 -27 19 -13 -30 8 -32 8 -35 -5 -24 -22 18 -28 4 -8 -25 21 -33 11 -46 -16 -21 -11 10 -20 13 -20 7 0 -6 5 -14 10 -17 16 -10 12 -25 -5 -19 -27 11 -16 -13 22 -45 20 -17 39 -31 42 -31 3 0 12 -12 18 -27 10 -21 10 -28 1 -34 -15 -10 -13 -11 37 -38 81 -43 86 -22 13 52 -56 55 -102 116 -94 124 8 9 41 -16 61 -46 33 -51 43 -46 40 20 -3 60 9 80 21 33 5 -19 9 -22 15 -12 5 7 9 23 9 36 0 23 14 30 25 12 4 -6 15 -8 24 -5 12 3 22 -3 30 -18 7 -13 27 -27 44 -33 24 -7 33 -15 34 -34 7 -91 27 -139 56 -140 10 0 9 18 -3 25 -5 3 -10 11 -10 16 0 6 5 7 10 4 6 -3 10 1 10 9 0 19 20 22 21 4 7 -82 6 -88 -13 -82 -26 8 -23 -12 7 -41 18 -19 35 -25 69 -25 29 0 48 -5 53 -15 6 -9 26 -15 56 -16 56 -3 70 7 32 21 -15 6 -40 24 -56 41 -23 24 -34 30 -54 25 -14 -4 -25 -2 -25 4 0 5 -9 19 -19 29 -19 19 -41 54 -41 65 0 13 19 4 41 -19 13 -13 33 -25 45 -25 11 0 26 -6 33 -12 11 -10 14 -10 18 0 6 14 33 16 33 2 0 -5 18 -10 40 -10 30 0 40 4 40 16 0 9 5 14 12 12 21 -7 20 -25 -2 -31 -27 -7 -25 -31 5 -55 14 -11 23 -26 20 -34 -7 -17 19 -43 58 -57 l27 -11 0 279 c0 239 -2 280 -15 285 -8 3 -15 12 -15 21 0 9 7 18 15 21 13 5 15 38 15 211 0 185 -2 204 -16 193 -8 -8 -21 -28 -28 -45 -8 -18 -27 -42 -44 -53 -16 -12 -37 -40 -46 -63 -9 -23 -19 -39 -23 -36 -3 4 0 42 7 86 13 87 6 143 -32 229 -38 85 -70 98 -146 58z m-98 -599 c-4 -7 -4 -9 1 -5 16 15 227 -154 211 -169 -3 -4 -26 13 -51 37 -25 24 -47 41 -50 39 -3 -3 6 -29 20 -57 14 -29 25 -54 25 -57 0 -3 9 -20 20 -37 14 -24 31 -36 62 -43 41 -10 65 -35 34 -35 -9 0 -16 -5 -16 -11 0 -16 -146 -7 -162 9 -10 10 -9 12 7 11 54 -5 56 -2 25 48 -34 53 -36 63 -15 63 13 0 12 4 -4 21 -11 12 -23 39 -26 60 -5 29 -18 49 -52 79 -25 22 -50 40 -55 40 -5 0 -3 6 4 14 15 16 32 10 22 -7z"/>
<path d="M7949 3833 c-6 -64 1 -147 15 -168 9 -13 16 -32 16 -42 0 -10 9 -35 20 -56 11 -20 20 -38 20 -40 0 -10 -43 2 -51 14 -15 24 -11 -68 5 -106 17 -40 15 -41 -19 -19 -22 15 -25 15 -25 1 0 -9 5 -19 10 -22 7 -4 7 -12 0 -25 -5 -10 -7 -27 -4 -37 15 -43 36 -83 44 -83 13 0 13 17 0 25 -18 11 -11 23 10 18 21 -6 27 -28 10 -38 -16 -10 -12 -40 8 -58 26 -23 29 -22 36 17 5 24 1 44 -12 67 l-18 33 33 67 c18 37 37 84 42 106 7 30 9 32 10 12 1 -32 -14 -79 -45 -142 l-24 -48 20 -36 c11 -22 17 -46 14 -59 -7 -26 36 -89 67 -99 11 -4 26 -21 35 -38 l17 -32 -32 30 c-18 17 -44 42 -58 58 -15 15 -30 27 -35 27 -15 0 13 -44 59 -91 28 -29 41 -49 34 -53 -8 -5 -7 -13 1 -29 7 -12 13 -26 14 -32 0 -5 4 -27 8 -47 9 -39 22 -49 32 -23 5 12 10 13 19 5 25 -21 35 25 35 154 l0 126 -27 -1 c-25 0 -26 -1 -8 -9 15 -7 10 -9 -22 -9 -24 -1 -43 -5 -43 -11 0 -5 -7 -7 -15 -4 -8 4 -15 13 -15 21 0 9 -8 21 -17 28 -14 11 -15 16 -5 28 9 11 10 17 2 22 -7 4 -8 11 -2 18 13 17 11 45 -5 51 -20 8 -15 26 7 26 11 0 20 -4 20 -10 0 -17 18 -11 47 16 l28 25 -32 -4 c-40 -4 -41 -1 -8 25 17 13 24 26 20 38 -3 10 -1 21 5 25 16 10 12 21 -15 33 -17 8 -25 20 -25 37 0 30 15 33 30 5 11 -21 40 -28 40 -9 0 6 9 8 20 4 19 -6 20 -2 20 132 0 95 -4 143 -12 151 -16 16 -28 15 -28 -3 0 -21 -17 -19 -25 3 -8 28 -74 46 -137 39 -29 -4 -54 -11 -56 -17 -3 -7 -13 -5 -28 5 -13 8 -24 12 -25 8z"/>
<path d="M7562 3722 c-16 -35 -15 -62 3 -62 7 0 18 -6 22 -14 11 -18 51 -38 63 -31 6 3 11 -6 12 -22 0 -15 2 -33 2 -40 2 -16 16 -29 16 -15 0 7 5 12 11 12 14 0 63 -59 69 -84 3 -12 15 -22 26 -24 11 -2 28 -17 37 -35 10 -18 26 -38 36 -44 16 -10 18 -8 17 10 -1 13 -12 27 -28 35 -18 8 -38 35 -58 75 -68 140 -108 195 -130 182 -6 -3 -10 0 -10 9 0 8 -17 28 -38 44 l-37 30 -13 -26z"/>
<path d="M7452 3073 c-22 -4 -22 -6 -9 -27 14 -20 14 -23 -1 -23 -10 0 -22 7 -29 16 -17 24 -20 13 -13 -69 6 -67 7 -69 8 -22 1 34 6 52 15 52 17 0 32 -12 40 -32 4 -11 17 -18 33 -18 18 0 24 -4 21 -13 -4 -10 1 -13 17 -10 24 5 41 -10 48 -42 3 -16 5 -14 10 9 5 24 0 34 -25 58 -17 15 -39 28 -49 28 -10 0 -18 5 -18 11 0 6 11 8 28 5 15 -3 34 -2 42 4 11 7 11 10 2 10 -7 0 -28 16 -48 35 -19 19 -38 34 -42 34 -4 -1 -17 -4 -30 -6z"/>
<path d="M6168 1444 c-23 -12 -28 -21 -28 -55 0 -22 4 -49 10 -59 5 -10 10 -40 11 -67 2 -52 26 -126 39 -118 5 3 11 -13 15 -35 8 -45 25 -64 25 -28 0 21 2 20 14 -7 7 -16 19 -49 25 -72 12 -45 31 -58 31 -23 0 11 -7 37 -15 56 -15 36 -12 111 7 147 7 13 2 23 -19 42 -15 13 -23 25 -17 25 6 0 17 -7 24 -15 19 -23 30 -18 30 16 0 26 -3 29 -19 24 -19 -6 -19 -5 -5 25 19 36 12 64 -13 56 -14 -4 -18 0 -20 20 -2 44 -18 47 -45 8 -25 -35 -27 -35 -37 -15 -11 19 -8 25 11 22 12 -1 30 39 24 55 -7 17 -14 17 -48 -2z"/>
<path d="M6452 518 c-20 -20 -14 -80 12 -119 13 -19 26 -46 28 -60 1 -13 9 -25 16 -25 6 -1 22 -2 34 -3 12 0 18 -4 15 -7 -4 -4 31 -35 76 -70 45 -35 110 -86 145 -114 36 -29 73 -50 87 -50 30 0 71 -17 112 -48 18 -13 40 -22 49 -20 11 2 -18 25 -79 62 -54 32 -101 64 -105 70 -4 7 -42 34 -84 61 -43 27 -85 59 -93 71 -8 13 -34 43 -57 67 -24 24 -43 49 -43 55 0 6 -6 19 -13 29 -7 10 -20 34 -30 53 -10 19 -23 34 -29 33 -7 -2 -10 4 -7 12 7 18 -17 20 -34 3z"/>
</g>
</svg>
